  0
SECTION
  2
HEADER
  9
$ACADVER
  1
AC1015
  9
$ACADMAINTVER
 70
     6
  9
$DWGCODEPAGE
  3
ANSI_1252
  9
$INSBASE
 10
0.0
 20
0.0
 30
0.0
  9
$EXTMIN
 10
0.0
 20
0.0
 30
0.0
  9
$EXTMAX
 10
594.0
 20
420.0
 30
0.0
  9
$LIMMIN
 10
0.0
 20
0.0
  9
$LIMMAX
 10
594.0
 20
420.0
  9
$ORTHOMODE
 70
     0
  9
$REGENMODE
 70
     1
  9
$FILLMODE
 70
     1
  9
$QTEXTMODE
 70
     0
  9
$MIRRTEXT
 70
     1
  9
$LTSCALE
 40
1.0
  9
$ATTMODE
 70
     1
  9
$TEXTSIZE
 40
3.5
  9
$TRACEWID
 40
1.0
  9
$TEXTSTYLE
  7
Standard
  9
$CLAYER
  8
0
  9
$CELTYPE
  6
ByLayer
  9
$CECOLOR
 62
   256
  9
$CELTSCALE
 40
1.0
  9
$DISPSILH
 70
     0
  9
$DIMSCALE
 40
1.0
  9
$DIMASZ
 40
3.302
  9
$DIMEXO
 40
1.0
  9
$DIMDLI
 40
3.75
  9
$DIMRND
 40
0.0
  9
$DIMDLE
 40
0.0
  9
$DIMEXE
 40
1.0
  9
$DIMTP
 40
0.0
  9
$DIMTM
 40
0.0
  9
$DIMTXT
 40
3.5
  9
$DIMCEN
 40
2.5
  9
$DIMTSZ
 40
0.0
  9
$DIMTOL
 70
     0
  9
$DIMLIM
 70
     0
  9
$DIMTIH
 70
     1
  9
$DIMTOH
 70
     1
  9
$DIMSE1
 70
     0
  9
$DIMSE2
 70
     0
  9
$DIMTAD
 70
     1
  9
$DIMZIN
 70
     1
  9
$DIMBLK
  1

  9
$DIMASO
 70
     1
  9
$DIMSHO
 70
     1
  9
$DIMPOST
  1

  9
$DIMAPOST
  1

  9
$DIMALT
 70
     0
  9
$DIMALTD
 70
     3
  9
$DIMALTF
 40
0.0393700787
  9
$DIMLFAC
 40
1.0
  9
$DIMTOFL
 70
     1
  9
$DIMTVP
 40
0.0
  9
$DIMTIX
 70
     0
  9
$DIMSOXD
 70
     0
  9
$DIMSAH
 70
     0
  9
$DIMBLK1
  1

  9
$DIMBLK2
  1

  9
$DIMSTYLE
  2
ISO-25
  9
$DIMCLRD
 70
     0
  9
$DIMCLRE
 70
     0
  9
$DIMCLRT
 70
     0
  9
$DIMTFAC
 40
1.0
  9
$DIMGAP
 40
1.524
  9
$DIMJUST
 70
     0
  9
$DIMSD1
 70
     0
  9
$DIMSD2
 70
     0
  9
$DIMTOLJ
 70
     0
  9
$DIMTZIN
 70
     1
  9
$DIMALTZ
 70
     0
  9
$DIMALTTZ
 70
     0
  9
$DIMUPT
 70
     0
  9
$DIMDEC
 70
     2
  9
$DIMTDEC
 70
     2
  9
$DIMALTU
 70
     2
  9
$DIMALTTD
 70
     3
  9
$DIMTXSTY
  7
Standard
  9
$DIMAUNIT
 70
     0
  9
$DIMADEC
 70
     2
  9
$DIMALTRND
 40
0.0
  9
$DIMAZIN
 70
     0
  9
$DIMDSEP
 70
    44
  9
$DIMATFIT
 70
     3
  9
$DIMFRAC
 70
     0
  9
$DIMLDRBLK
  1

  9
$DIMLUNIT
 70
     2
  9
$DIMLWD
 70
    -2
  9
$DIMLWE
 70
    -2
  9
$DIMTMOVE
 70
     0
  9
$LUNITS
 70
     2
  9
$LUPREC
 70
     2
  9
$SKETCHINC
 40
1.0
  9
$FILLETRAD
 40
0.0
  9
$AUNITS
 70
     0
  9
$AUPREC
 70
     2
  9
$MENU
  1
.
  9
$ELEVATION
 40
0.0
  9
$PELEVATION
 40
0.0
  9
$THICKNESS
 40
0.0
  9
$LIMCHECK
 70
     0
  9
$CHAMFERA
 40
0.0
  9
$CHAMFERB
 40
0.0
  9
$CHAMFERC
 40
0.0
  9
$CHAMFERD
 40
0.0
  9
$SKPOLY
 70
     0
  9
$TDCREATE
 40
2461211.480753958
  9
$TDUCREATE
 40
2461211.189087292
  9
$TDUPDATE
 40
2461211.480754421
  9
$TDUUPDATE
 40
2461211.189087755
  9
$TDINDWG
 40
0.0000000116
  9
$TDUSRTIMER
 40
0.0000000116
  9
$USRTIMER
 70
     1
  9
$ANGBASE
 50
0.0
  9
$ANGDIR
 70
     0
  9
$PDMODE
 70
     0
  9
$PDSIZE
 40
-1.0
  9
$PLINEWID
 40
0.0
  9
$SPLFRAME
 70
     0
  9
$SPLINETYPE
 70
     6
  9
$SPLINESEGS
 70
     8
  9
$HANDSEED
  5
149
  9
$SURFTAB1
 70
     6
  9
$SURFTAB2
 70
     6
  9
$SURFTYPE
 70
     6
  9
$SURFU
 70
     6
  9
$SURFV
 70
     6
  9
$UCSBASE
  2

  9
$UCSNAME
  2

  9
$UCSORG
 10
0.0
 20
0.0
 30
0.0
  9
$UCSXDIR
 10
1.0
 20
0.0
 30
0.0
  9
$UCSYDIR
 10
0.0
 20
1.0
 30
0.0
  9
$UCSORTHOREF
  2

  9
$UCSORTHOVIEW
 70
     0
  9
$UCSORGTOP
 10
0.0
 20
0.0
 30
0.0
  9
$UCSORGBOTTOM
 10
0.0
 20
0.0
 30
0.0
  9
$UCSORGLEFT
 10
0.0
 20
0.0
 30
0.0
  9
$UCSORGRIGHT
 10
0.0
 20
0.0
 30
0.0
  9
$UCSORGFRONT
 10
0.0
 20
0.0
 30
0.0
  9
$UCSORGBACK
 10
0.0
 20
0.0
 30
0.0
  9
$PUCSBASE
  2

  9
$PUCSNAME
  2

  9
$PUCSORG
 10
0.0
 20
0.0
 30
0.0
  9
$PUCSXDIR
 10
1.0
 20
0.0
 30
0.0
  9
$PUCSYDIR
 10
0.0
 20
1.0
 30
0.0
  9
$PUCSORTHOREF
  2

  9
$PUCSORTHOVIEW
 70
     0
  9
$PUCSORGTOP
 10
0.0
 20
0.0
 30
0.0
  9
$PUCSORGBOTTOM
 10
0.0
 20
0.0
 30
0.0
  9
$PUCSORGLEFT
 10
0.0
 20
0.0
 30
0.0
  9
$PUCSORGRIGHT
 10
0.0
 20
0.0
 30
0.0
  9
$PUCSORGFRONT
 10
0.0
 20
0.0
 30
0.0
  9
$PUCSORGBACK
 10
0.0
 20
0.0
 30
0.0
  9
$USERI1
 70
     0
  9
$USERI2
 70
     0
  9
$USERI3
 70
     0
  9
$USERI4
 70
     0
  9
$USERI5
 70
     0
  9
$USERR1
 40
0.0
  9
$USERR2
 40
0.0
  9
$USERR3
 40
0.0
  9
$USERR4
 40
0.0
  9
$USERR5
 40
0.0
  9
$WORLDVIEW
 70
     1
  9
$SHADEDGE
 70
     3
  9
$SHADEDIF
 70
    70
  9
$TILEMODE
 70
     1
  9
$MAXACTVP
 70
    64
  9
$PINSBASE
 10
0.0
 20
0.0
 30
0.0
  9
$PLIMCHECK
 70
     0
  9
$PEXTMIN
 10
1.0000000000E+20
 20
1.0000000000E+20
 30
1.0000000000E+20
  9
$PEXTMAX
 10
-1.0000000000E+20
 20
-1.0000000000E+20
 30
-1.0000000000E+20
  9
$PLIMMIN
 10
0.0
 20
0.0
  9
$PLIMMAX
 10
420.0
 20
297.0
  9
$UNITMODE
 70
     0
  9
$VISRETAIN
 70
     1
  9
$PLINEGEN
 70
     0
  9
$PSLTSCALE
 70
     1
  9
$TREEDEPTH
 70
  3020
  9
$CMLSTYLE
  2
Standard
  9
$CMLJUST
 70
     0
  9
$CMLSCALE
 40
20.0
  9
$PROXYGRAPHICS
 70
     1
  9
$MEASUREMENT
 70
     1
  9
$CELWEIGHT
370
    -1
  9
$ENDCAPS
280
     0
  9
$JOINSTYLE
280
     0
  9
$LWDISPLAY
290
     1
  9
$INSUNITS
 70
     4
  9
$HYPERLINKBASE
  1

  9
$STYLESHEET
  1

  9
$XEDIT
290
     1
  9
$CEPSNTYPE
380
     0
  9
$PSTYLEMODE
290
     1
  9
$FINGERPRINTGUID
  2
{87b7d73e-6d52-406e-8de9-f2f08056494c}
  9
$VERSIONGUID
  2
{FAEB1C32-E019-11D5-929B-00C0DF256EC4}
  9
$EXTNAMES
290
     1
  9
$PSVPSCALE
 40
0.0
  9
$OLESTARTUP
290
     0
  0
ENDSEC
  0
SECTION
  2
CLASSES
  0
CLASS
  1
ACDBDICTIONARYWDFLT
  2
AcDbDictionaryWithDefault
  3
ObjectDBX Classes
 90
        0
280
     0
281
     0
  0
CLASS
  1
VISUALSTYLE
  2
AcDbVisualStyle
  3
ObjectDBX Classes
 90
     4095
280
     0
281
     0
  0
CLASS
  1
MATERIAL
  2
AcDbMaterial
  3
ObjectDBX Classes
 90
     1153
280
     0
281
     0
  0
CLASS
  1
SCALE
  2
AcDbScale
  3
ObjectDBX Classes
 90
     1153
280
     0
281
     0
  0
CLASS
  1
TABLESTYLE
  2
AcDbTableStyle
  3
ObjectDBX Classes
 90
     4095
280
     0
281
     0
  0
CLASS
  1
MLEADERSTYLE
  2
AcDbMLeaderStyle
  3
ACDB_MLEADERSTYLE_CLASS
 90
     4095
280
     0
281
     0
  0
CLASS
  1
SUN
  2
AcDbSun
  3
SCENEOE
 90
     1153
280
     0
281
     0
  0
CLASS
  1
ACDBPLACEHOLDER
  2
AcDbPlaceHolder
  3
ObjectDBX Classes
 90
        0
280
     0
281
     0
  0
CLASS
  1
LAYOUT
  2
AcDbLayout
  3
ObjectDBX Classes
 90
        0
280
     0
281
     0
  0
ENDSEC
  0
SECTION
  2
TABLES
  0
TABLE
  2
VPORT
  5
8
330
0
100
AcDbSymbolTable
 70
     1
  0
VPORT
  5
29
330
8
100
AcDbSymbolTableRecord
100
AcDbViewportTableRecord
  2
*Active
 70
     0
 10
0.0
 20
0.0
 11
1.0
 21
1.0
 12
297.0
 22
210.0
 13
0.0
 23
0.0
 14
10.0
 24
10.0
 15
10.0
 25
10.0
 16
0.0
 26
0.0
 36
1.0
 17
0.0
 27
0.0
 37
0.0
 40
420.0
 41
1.4142857143
 42
50.0
 43
0.0
 44
0.0
 50
0.0
 51
0.0
 71
     0
 72
  2000
 73
     1
 74
     3
 75
     0
 76
     0
 77
     0
 78
     0
281
     0
 65
     1
110
0.0
120
0.0
130
0.0
111
1.0
121
0.0
131
0.0
112
0.0
122
1.0
132
0.0
 79
     0
146
0.0
  0
ENDTAB
  0
TABLE
  2
LTYPE
  5
5
330
0
100
AcDbSymbolTable
 70
     6
  0
LTYPE
  5
14
330
5
100
AcDbSymbolTableRecord
100
AcDbLinetypeTableRecord
  2
ByBlock
 70
     0
  3

 72
    65
 73
     0
 40
0.0
  0
LTYPE
  5
15
330
5
100
AcDbSymbolTableRecord
100
AcDbLinetypeTableRecord
  2
ByLayer
 70
     0
  3

 72
    65
 73
     0
 40
0.0
  0
LTYPE
  5
16
330
5
100
AcDbSymbolTableRecord
100
AcDbLinetypeTableRecord
  2
Continuous
 70
     0
  3
Solid line
 72
    65
 73
     0
 40
0.0
  0
LTYPE
  5
5E
330
5
100
AcDbSymbolTableRecord
100
AcDbLinetypeTableRecord
  2
HIDDEN
 70
     0
  3
Hidden __ __ __ __ __ __ __ __ __ __ __ __ __ __
 72
    65
 73
     2
 40
1.905
 49
1.27
 74
     0
 49
-0.635
 74
     0
  0
LTYPE
  5
5F
330
5
100
AcDbSymbolTableRecord
100
AcDbLinetypeTableRecord
  2
PHANTOM
 70
     0
  3
Phantom ______  __  __  ______  __  __  ______
 72
    65
 73
     6
 40
12.7
 49
6.35
 74
     0
 49
-1.27
 74
     0
 49
1.27
 74
     0
 49
-1.27
 74
     0
 49
1.27
 74
     0
 49
-1.27
 74
     0
  0
LTYPE
  5
60
330
5
100
AcDbSymbolTableRecord
100
AcDbLinetypeTableRecord
  2
CENTER
 70
     0
  3
Center ____ _ ____ _ ____ _ ____ _ ____ _ ____
 72
    65
 73
     4
 40
10.16
 49
6.35
 74
     0
 49
-1.27
 74
     0
 49
1.27
 74
     0
 49
-1.27
 74
     0
  0
LTYPE
  5
61
330
5
100
AcDbSymbolTableRecord
100
AcDbLinetypeTableRecord
  2
CENTERX2
 70
     0
  3
Center (2x) ________  __  ________  __  _____
 72
    65
 73
     4
 40
20.32
 49
12.7
 74
     0
 49
-2.54
 74
     0
 49
2.54
 74
     0
 49
-2.54
 74
     0
  0
LTYPE
  5
62
330
5
100
AcDbSymbolTableRecord
100
AcDbLinetypeTableRecord
  2
DOT2
 70
     0
  3
Dot (.5x) ........................................
 72
    65
 73
     2
 40
0.635
 49
0.0
 74
     0
 49
-0.635
 74
     0
  0
ENDTAB
  0
TABLE
  2
LAYER
  5
2
330
0
100
AcDbSymbolTable
 70
     2
  0
LAYER
  5
10
330
2
100
AcDbSymbolTableRecord
100
AcDbLayerTableRecord
  2
0
 70
     0
 62
     7
  6
Continuous
370
    -3
390
F
  0
LAYER
  5
63
330
2
100
AcDbSymbolTableRecord
100
AcDbLayerTableRecord
  2
FORMAT
 70
     0
 62
     7
  6
Continuous
370
    -3
390
F
  0
ENDTAB
  0
TABLE
  2
STYLE
  5
3
330
0
100
AcDbSymbolTable
 70
     1
  0
STYLE
  5
11
330
3
100
AcDbSymbolTableRecord
100
AcDbTextStyleTableRecord
  2
Standard
 70
     0
 40
0.0
 41
1.0
 50
0.0
 71
     0
 42
3.5
  3
txt
  4

  0
ENDTAB
  0
TABLE
  2
VIEW
  5
6
330
0
100
AcDbSymbolTable
 70
     0
  0
ENDTAB
  0
TABLE
  2
UCS
  5
7
330
0
100
AcDbSymbolTable
 70
     0
  0
ENDTAB
  0
TABLE
  2
APPID
  5
9
330
0
100
AcDbSymbolTable
 70
     1
  0
APPID
  5
12
330
9
100
AcDbSymbolTableRecord
100
AcDbRegAppTableRecord
  2
ACAD
 70
     0
  0
ENDTAB
  0
TABLE
  2
DIMSTYLE
  5
A
330
0
100
AcDbSymbolTable
 70
     1
100
AcDbDimStyleTable
  0
DIMSTYLE
105
27
330
A
100
AcDbSymbolTableRecord
100
AcDbDimStyleTableRecord
  2
ISO-25
 70
     0
 41
2.5
 42
0.625
 43
3.75
 44
1.25
 73
     0
 74
     0
 77
     1
 78
     8
140
2.5
141
2.5
143
0.0393700787
147
0.625
171
     3
172
     1
178
     0
271
     2
272
     2
274
     3
278
    44
283
     0
284
     8
340
11
  0
ENDTAB
  0
TABLE
  2
BLOCK_RECORD
  5
1
330
0
100
AcDbSymbolTable
 70
     1
  0
BLOCK_RECORD
  5
1F
330
1
100
AcDbSymbolTableRecord
100
AcDbBlockTableRecord
  2
*Model_Space
340
22
  0
BLOCK_RECORD
  5
1B
330
1
100
AcDbSymbolTableRecord
100
AcDbBlockTableRecord
  2
*Paper_Space
340
1E
  0
BLOCK_RECORD
  5
23
330
1
100
AcDbSymbolTableRecord
100
AcDbBlockTableRecord
  2
*Paper_Space0
340
26
  0
ENDTAB
  0
ENDSEC
  0
SECTION
  2
BLOCKS
  0
BLOCK
  5
20
330
1F
100
AcDbEntity
  8
0
100
AcDbBlockBegin
  2
*Model_Space
 70
     0
 10
0.0
 20
0.0
 30
0.0
  3
*Model_Space
  1

  0
ENDBLK
  5
21
330
1F
100
AcDbEntity
  8
0
100
AcDbBlockEnd
  0
BLOCK
  5
1C
330
1B
100
AcDbEntity
 67
     1
  8
0
100
AcDbBlockBegin
  2
*Paper_Space
 70
     0
 10
0.0
 20
0.0
 30
0.0
  3
*Paper_Space
  1

  0
ENDBLK
  5
1D
330
1B
100
AcDbEntity
 67
     1
  8
0
100
AcDbBlockEnd
  0
BLOCK
  5
24
330
23
100
AcDbEntity
  8
0
100
AcDbBlockBegin
  2
*Paper_Space0
 70
     0
 10
0.0
 20
0.0
 30
0.0
  3
*Paper_Space0
  1

  0
ENDBLK
  5
25
330
23
100
AcDbEntity
  8
0
100
AcDbBlockEnd
  0
ENDSEC
  0
SECTION
  2
ENTITIES
  0
SPLINE
  5
64
330
1F
100
AcDbEntity
  8
0
  6
Continuous
 62
     7
370
    25
100
AcDbSpline
210
0.0
220
0.0
230
1.0
 70
     8
 71
     3
 72
    15
 73
    11
 74
     0
 42
0.00000001
 43
0.00000001
 40
0.0
 40
0.0
 40
0.0
 40
0.0
 40
0.1000901315384047
 40
0.2077633888024061
 40
0.3221394079137156
 40
0.4436750544166274
 40
0.5718709026324037
 40
0.7076939080491927
 40
0.8502522983041515
 40
1.0
 40
1.0
 40
1.0
 40
1.0
 10
363.9418992381082
 20
199.1112830324662
 30
0.0
 10
363.8350845672747
 20
199.1301933721402
 30
0.0
 10
363.6133626288071
 20
199.1694467550032
 30
0.0
 10
363.2686168090638
 20
199.2246397617127
 30
0.0
 10
362.9004784593352
 20
199.2805877767147
 30
0.0
 10
362.5098648815158
 20
199.3366481275291
 30
0.0
 10
362.0955214927448
 20
199.3907290255497
 30
0.0
 10
361.6582314878515
 20
199.444917608424
 30
0.0
 10
361.1974578818315
 20
199.4994981431488
 30
0.0
 10
360.8826078898158
 20
199.5345186052756
 30
0.0
 10
360.721311002814
 20
199.5524595030545
 30
0.0
  0
SPLINE
  5
65
330
1F
100
AcDbEntity
  8
0
  6
Continuous
 62
     7
370
    25
100
AcDbSpline
210
0.0
220
0.0
230
1.0
 70
     8
 71
     3
 72
    15
 73
    11
 74
     0
 42
0.00000001
 43
0.00000001
 40
0.0
 40
0.0
 40
0.0
 40
0.0
 40
0.1721167937787542
 40
0.3306499722635435
 40
0.4756017090711308
 40
0.6074892461215248
 40
0.7258043274196279
 40
0.8305528540878757
 40
0.9218247110096914
 40
0.9999999999999999
 40
0.9999999999999999
 40
0.9999999999999999
 40
0.9999999999999999
 10
360.721311002814
 20
199.5524595030545
 30
0.0
 10
360.9066254031541
 20
199.5782969535437
 30
0.0
 10
361.2626290213207
 20
199.6279327392221
 30
0.0
 10
361.7743760078337
 20
199.7016044549632
 30
0.0
 10
362.2426704101495
 20
199.7702108504724
 30
0.0
 10
362.6670943826151
 20
199.8365314551947
 30
0.0
 10
363.0479949134445
 20
199.8982225272916
 30
0.0
 10
363.3849808728301
 20
199.9549006572352
 30
0.0
 10
363.6780701894452
 20
200.0092945752267
 30
0.0
 10
363.8586074631469
 20
200.0458764087042
 30
0.0
 10
363.9418992381082
 20
200.0627536207015
 30
0.0
  0
LINE
  5
66
330
1F
100
AcDbEntity
  8
0
  6
Continuous
 62
     7
370
    25
100
AcDbLine
 10
363.9418992381
 20
200.0627536207
 30
0.0
 11
363.9418992381
 21
199.1112830325
 31
0.0
  0
SPLINE
  5
67
330
1F
100
AcDbEntity
  8
0
  6
Continuous
 62
     7
370
    25
100
AcDbSpline
210
0.0
220
0.0
230
1.0
 70
     8
 71
     3
 72
    15
 73
    11
 74
     0
 42
0.00000001
 43
0.00000001
 40
0.0
 40
0.0
 40
0.0
 40
0.0
 40
0.1000901315384047
 40
0.2077633888024061
 40
0.3221394079137156
 40
0.4436750544166274
 40
0.5718709026324038
 40
0.7076939080491927
 40
0.8502522983041514
 40
1.0
 40
1.0
 40
1.0
 40
1.0
 10
363.9418992381082
 20
227.2712830324662
 30
0.0
 10
363.8350845672747
 20
227.2901933721402
 30
0.0
 10
363.6133626288071
 20
227.3294467550032
 30
0.0
 10
363.2686168090638
 20
227.3846397617127
 30
0.0
 10
362.9004784593352
 20
227.4405877767147
 30
0.0
 10
362.5098648815158
 20
227.4966481275291
 30
0.0
 10
362.0955214927448
 20
227.5507290255497
 30
0.0
 10
361.6582314878515
 20
227.604917608424
 30
0.0
 10
361.1974578818315
 20
227.6594981431488
 30
0.0
 10
360.8826078898158
 20
227.6945186052756
 30
0.0
 10
360.721311002814
 20
227.7124595030545
 30
0.0
  0
SPLINE
  5
68
330
1F
100
AcDbEntity
  8
0
  6
Continuous
 62
     7
370
    25
100
AcDbSpline
210
0.0
220
0.0
230
1.0
 70
     8
 71
     3
 72
    15
 73
    11
 74
     0
 42
0.00000001
 43
0.00000001
 40
0.0
 40
0.0
 40
0.0
 40
0.0
 40
0.1721167937787542
 40
0.3306499722635435
 40
0.4756017090711308
 40
0.607489246121525
 40
0.7258043274196279
 40
0.8305528540878755
 40
0.9218247110096914
 40
0.9999999999999999
 40
0.9999999999999999
 40
0.9999999999999999
 40
0.9999999999999999
 10
360.721311002814
 20
227.7124595030545
 30
0.0
 10
360.9066254031541
 20
227.7382969535437
 30
0.0
 10
361.2626290213207
 20
227.7879327392221
 30
0.0
 10
361.7743760078337
 20
227.8616044549632
 30
0.0
 10
362.2426704101495
 20
227.9302108504724
 30
0.0
 10
362.6670943826151
 20
227.9965314551947
 30
0.0
 10
363.0479949134445
 20
228.0582225272916
 30
0.0
 10
363.3849808728301
 20
228.1149006572352
 30
0.0
 10
363.6780701894452
 20
228.1692945752267
 30
0.0
 10
363.8586074631469
 20
228.2058764087042
 30
0.0
 10
363.9418992381082
 20
228.2227536207015
 30
0.0
  0
LINE
  5
69
330
1F
100
AcDbEntity
  8
0
  6
Continuous
 62
     7
370
    25
100
AcDbLine
 10
363.9418992381
 20
228.2227536207
 30
0.0
 11
363.9418992381
 21
227.2712830325
 31
0.0
  0
SPLINE
  5
6A
330
1F
100
AcDbEntity
  8
0
  6
Continuous
 62
     7
370
    25
100
AcDbSpline
210
0.0
220
0.0
230
1.0
 70
     8
 71
     3
 72
    23
 73
    19
 74
     0
 42
0.00000001
 43
0.00000001
 40
0.0
 40
0.0
 40
0.0
 40
0.0
 40
0.0831603507408791
 40
0.1588618007492466
 40
0.2263834726422345
 40
0.2867229457398049
 40
0.3394788478594049
 40
0.3856925167890989
 40
0.4251288756802867
 40
0.4593977337080961
 40
0.4946806820000427
 40
0.5371233776995715
 40
0.5891794256327871
 40
0.6503028250532091
 40
0.7223964381717083
 40
0.804210060111916
 40
0.8966869865261727
 40
1.0
 40
1.0
 40
1.0
 40
1.0
 10
365.4477815910494
 20
256.9886359736427
 30
0.0
 10
365.447149139431
 20
256.9400981151588
 30
0.0
 10
365.4459409626726
 20
256.8473759039779
 30
0.0
 10
365.4387910444361
 20
256.7153753747975
 30
0.0
 10
365.4270443097411
 20
256.5971336988765
 30
0.0
 10
365.4120269315505
 20
256.4926553351963
 30
0.0
 10
365.3896258028636
 20
256.4023206197314
 30
0.0
 10
365.3641673734289
 20
256.3254097469717
 30
0.0
 10
365.3329533471228
 20
256.2626955174168
 30
0.0
 10
365.2969723439218
 20
256.2093223423853
 30
0.0
 10
365.2436372550106
 20
256.1700406230307
 30
0.0
 10
365.1758680670495
 20
256.1356877895071
 30
0.0
 10
365.0884548045137
 20
256.1097951891502
 30
0.0
 10
364.9830081871513
 20
256.0856361136003
 30
0.0
 10
364.8583731564518
 20
256.0696296809069
 30
0.0
 10
364.7152079375016
 20
256.055927329696
 30
0.0
 10
364.5532299096607
 20
256.0494033909716
 30
0.0
 10
364.4389606938576
 20
256.0481309404854
 30
0.0
 10
364.3786639439905
 20
256.0474595030545
 30
0.0
  0
LINE
  5
6B
330
1F
100
AcDbEntity
  8
0
  6
Continuous
 62
     7
370
    25
100
AcDbLine
 10
364.378663944
 20
256.0474595031
 30
0.0
 11
361.2654286499
 21
256.0474595031
 31
0.0
  0
SPLINE
  5
6C
330
1F
100
AcDbEntity
  8
0
  6
Continuous
 62
     7
370
    25
100
AcDbSpline
210
0.0
220
0.0
230
1.0
 70
     8
 71
     3
 72
    23
 73
    19
 74
     0
 42
0.00000001
 43
0.00000001
 40
0.0
 40
0.0
 40
0.0
 40
0.0
 40
0.0772769096910506
 40
0.1463727577279504
 40
0.2082501378946366
 40
0.2629158460652019
 40
0.3085964102298434
 40
0.3471652895756063
 40
0.3787221864890978
 40
0.4025843808419242
 40
0.4449906644164023
 40
0.4906712285810395
 40
0.5436790830491361
 40
0.6049659910827446
 40
0.6788309614048296
 40
0.7697250446510853
 40
0.8763354241168413
 40
1.0
 40
1.0
 40
1.0
 40
1.0
 10
361.2654286498729
 20
256.0474595030545
 30
0.0
 10
361.2237640368843
 20
256.0480217096485
 30
0.0
 10
361.1448457115116
 20
256.0490866038051
 30
0.0
 10
361.0325341338824
 20
256.049498954695
 30
0.0
 10
360.9325331828752
 20
256.0543859531531
 30
0.0
 10
360.8452226416625
 20
256.0598250361426
 30
0.0
 10
360.770652490294
 20
256.0671345102557
 30
0.0
 10
360.7087879923497
 20
256.07574829235
 30
0.0
 10
360.6589883486262
 20
256.0854039273719
 30
0.0
 10
360.6083707348712
 20
256.1007397506556
 30
0.0
 10
360.5557069170684
 20
256.1325882076362
 30
0.0
 10
360.5052218299327
 20
256.1904731855786
 30
0.0
 10
360.4608633194359
 20
256.264947404701
 30
0.0
 10
360.4260612797288
 20
256.3607485998429
 30
0.0
 10
360.3984596985089
 20
256.4796455642088
 30
0.0
 10
360.378880337347
 20
256.6248438999959
 30
0.0
 10
360.3679222172875
 20
256.7977810542185
 30
0.0
 10
360.3662998889676
 20
256.9219522873541
 30
0.0
 10
360.3654286498729
 20
256.9886359736427
 30
0.0
  0
LINE
  5
6D
330
1F
100
AcDbEntity
  8
0
  6
Continuous
 62
     7
370
    25
100
AcDbLine
 10
360.3654286499
 20
256.9886359736
 30
0.0
 11
365.447781591
 21
256.9886359736
 31
0.0
  0
SPLINE
  5
6E
330
1F
100
AcDbEntity
  8
0
  6
Continuous
 62
     7
370
    25
100
AcDbSpline
210
0.0
220
0.0
230
1.0
 70
     8
 71
     3
 72
    15
 73
    11
 74
     0
 42
0.00000001
 43
0.00000001
 40
0.0
 40
0.0
 40
0.0
 40
0.0
 40
0.1721167937787543
 40
0.3306499722635436
 40
0.4756017090711306
 40
0.607489246121525
 40
0.7258043274196282
 40
0.8305528540878759
 40
0.9218247110096919
 40
1.0
 40
1.0
 40
1.0
 40
1.0
 10
360.721311002814
 20
278.6301065618781
 30
0.0
 10
360.9066254031541
 20
278.6559440123673
 30
0.0
 10
361.2626290213207
 20
278.7055797980457
 30
0.0
 10
361.7743760078337
 20
278.7792515137867
 30
0.0
 10
362.2426704101495
 20
278.8478579092959
 30
0.0
 10
362.6670943826151
 20
278.9141785140182
 30
0.0
 10
363.0479949134445
 20
278.9758695861152
 30
0.0
 10
363.3849808728301
 20
279.0325477160588
 30
0.0
 10
363.6780701894452
 20
279.0869416340503
 30
0.0
 10
363.8586074631469
 20
279.1235234675278
 30
0.0
 10
363.9418992381082
 20
279.140400679525
 30
0.0
  0
LINE
  5
6F
330
1F
100
AcDbEntity
  8
0
  6
Continuous
 62
     7
370
    25
100
AcDbLine
 10
363.9418992381
 20
279.1404006795
 30
0.0
 11
363.9418992381
 21
278.1889300913
 31
0.0
  0
SPLINE
  5
70
330
1F
100
AcDbEntity
  8
0
  6
Continuous
 62
     7
370
    25
100
AcDbSpline
210
0.0
220
0.0
230
1.0
 70
     8
 71
     3
 72
    15
 73
    11
 74
     0
 42
0.00000001
 43
0.00000001
 40
0.0
 40
0.0
 40
0.0
 40
0.0
 40
0.100090131538405
 40
0.2077633888024062
 40
0.3221394079137159
 40
0.4436750544166274
 40
0.5718709026324038
 40
0.707693908049193
 40
0.8502522983041514
 40
1.0
 40
1.0
 40
1.0
 40
1.0
 10
363.9418992381082
 20
278.1889300912898
 30
0.0
 10
363.8350845672747
 20
278.2078404309638
 30
0.0
 10
363.6133626288071
 20
278.2470938138267
 30
0.0
 10
363.2686168090638
 20
278.3022868205363
 30
0.0
 10
362.9004784593352
 20
278.3582348355382
 30
0.0
 10
362.5098648815158
 20
278.4142951863527
 30
0.0
 10
362.0955214927448
 20
278.4683760843732
 30
0.0
 10
361.6582314878515
 20
278.5225646672475
 30
0.0
 10
361.1974578818315
 20
278.5771452019723
 30
0.0
 10
360.8826078898158
 20
278.6121656640992
 30
0.0
 10
360.721311002814
 20
278.6301065618781
 30
0.0
  0
LINE
  5
71
330
1F
100
AcDbEntity
  8
0
  6
Continuous
 62
     7
370
    25
100
AcDbLine
 10
366.953663944
 20
195.0215771501
 30
0.0
 11
366.953663944
 21
198.8465771501
 31
0.0
  0
LINE
  5
72
330
1F
100
AcDbEntity
  8
0
  6
Continuous
 62
     7
370
    25
100
AcDbLine
 10
366.953663944
 20
198.8465771501
 30
0.0
 11
365.5418992381
 21
199.033341856
 31
0.0
  0
LINE
  5
73
330
1F
100
AcDbEntity
  8
0
  6
Continuous
 62
     7
370
    25
100
AcDbLine
 10
365.5418992381
 20
199.033341856
 30
0.0
 11
365.5418992381
 21
200.0480477383
 31
0.0
  0
LINE
  5
74
330
1F
100
AcDbEntity
  8
0
  6
Continuous
 62
     7
370
    25
100
AcDbLine
 10
365.5418992381
 20
200.0480477383
 30
0.0
 11
366.953663944
 21
200.2348124442
 31
0.0
  0
LINE
  5
75
330
1F
100
AcDbEntity
  8
0
  6
Continuous
 62
     7
370
    25
100
AcDbLine
 10
366.953663944
 20
200.2348124442
 30
0.0
 11
366.953663944
 21
204.1509889148
 31
0.0
  0
LINE
  5
76
330
1F
100
AcDbEntity
  8
0
  6
Continuous
 62
     7
370
    25
100
AcDbLine
 10
366.953663944
 20
204.1509889148
 30
0.0
 11
358.8595462969
 21
202.3215771501
 31
0.0
  0
LINE
  5
77
330
1F
100
AcDbEntity
  8
0
  6
Continuous
 62
     7
370
    25
100
AcDbLine
 10
358.8595462969
 20
202.3215771501
 30
0.0
 11
358.8595462969
 21
197.0451065619
 31
0.0
  0
LINE
  5
78
330
1F
100
AcDbEntity
  8
0
  6
Continuous
 62
     7
370
    25
100
AcDbLine
 10
358.8595462969
 20
197.0451065619
 30
0.0
 11
366.953663944
 21
195.0215771501
 31
0.0
  0
LINE
  5
79
330
1F
100
AcDbEntity
  8
0
  6
Continuous
 62
     7
370
    25
100
AcDbLine
 10
366.953663944
 20
234.6074595031
 30
0.0
 11
366.953663944
 21
237.9618712678
 31
0.0
  0
LINE
  5
7A
330
1F
100
AcDbEntity
  8
0
  6
Continuous
 62
     7
370
    25
100
AcDbLine
 10
366.953663944
 20
237.9618712678
 30
0.0
 11
363.3595462969
 21
239.5015771501
 31
0.0
  0
LINE
  5
7B
330
1F
100
AcDbEntity
  8
0
  6
Continuous
 62
     7
370
    25
100
AcDbLine
 10
363.3595462969
 20
239.5015771501
 30
0.0
 11
366.953663944
 21
239.5015771501
 31
0.0
  0
LINE
  5
7C
330
1F
100
AcDbEntity
  8
0
  6
Continuous
 62
     7
370
    25
100
AcDbLine
 10
366.953663944
 20
239.5015771501
 30
0.0
 11
366.953663944
 21
242.7015771501
 31
0.0
  0
LINE
  5
7D
330
1F
100
AcDbEntity
  8
0
  6
Continuous
 62
     7
370
    25
100
AcDbLine
 10
366.953663944
 20
242.7015771501
 30
0.0
 11
358.8595462969
 21
242.7015771501
 31
0.0
  0
LINE
  5
7E
330
1F
100
AcDbEntity
  8
0
  6
Continuous
 62
     7
370
    25
100
AcDbLine
 10
358.8595462969
 20
242.7015771501
 30
0.0
 11
358.8595462969
 21
239.5545183266
 31
0.0
  0
LINE
  5
7F
330
1F
100
AcDbEntity
  8
0
  6
Continuous
 62
     7
370
    25
100
AcDbLine
 10
358.8595462969
 20
239.5545183266
 30
0.0
 11
362.4198404146
 21
237.8074595031
 31
0.0
  0
LINE
  5
80
330
1F
100
AcDbEntity
  8
0
  6
Continuous
 62
     7
370
    25
100
AcDbLine
 10
362.4198404146
 20
237.8074595031
 30
0.0
 11
358.8595462969
 21
237.8074595031
 31
0.0
  0
LINE
  5
81
330
1F
100
AcDbEntity
  8
0
  6
Continuous
 62
     7
370
    25
100
AcDbLine
 10
358.8595462969
 20
237.8074595031
 30
0.0
 11
358.8595462969
 21
234.6074595031
 31
0.0
  0
LINE
  5
82
330
1F
100
AcDbEntity
  8
0
  6
Continuous
 62
     7
370
    25
100
AcDbLine
 10
358.8595462969
 20
234.6074595031
 30
0.0
 11
366.953663944
 21
234.6074595031
 31
0.0
  0
LINE
  5
83
330
1F
100
AcDbEntity
  8
0
  6
Continuous
 62
     7
370
    25
100
AcDbLine
 10
366.953663944
 20
245.6568712678
 30
0.0
 11
366.953663944
 21
249.4215771501
 31
0.0
  0
LINE
  5
84
330
1F
100
AcDbEntity
  8
0
  6
Continuous
 62
     7
370
    25
100
AcDbLine
 10
366.953663944
 20
249.4215771501
 30
0.0
 11
358.8595462969
 21
249.4215771501
 31
0.0
  0
LINE
  5
85
330
1F
100
AcDbEntity
  8
0
  6
Continuous
 62
     7
370
    25
100
AcDbLine
 10
358.8595462969
 20
249.4215771501
 30
0.0
 11
358.8595462969
 21
245.6568712678
 31
0.0
  0
LINE
  5
86
330
1F
100
AcDbEntity
  8
0
  6
Continuous
 62
     7
370
    25
100
AcDbLine
 10
358.8595462969
 20
245.6568712678
 30
0.0
 11
366.953663944
 21
245.6568712678
 31
0.0
  0
SPLINE
  5
87
330
1F
100
AcDbEntity
  8
0
  6
Continuous
 62
     7
370
    25
100
AcDbSpline
210
0.0
220
0.0
230
1.0
 70
     8
 71
     3
 72
    47
 73
    43
 74
     0
 42
0.00000001
 43
0.00000001
 40
0.0
 40
0.0
 40
0.0
 40
0.0
 40
0.0416630245266442
 40
0.0815838967979978
 40
0.1197593459830434
 40
0.1563886648194869
 40
0.1912741807175669
 40
0.2244249811180582
 40
0.2560262242056397
 40
0.2858843015329375
 40
0.314015343737896
 40
0.3405980422983655
 40
0.3654504736645219
 40
0.388576330096207
 40
0.4101566658825468
 40
0.4298242958172201
 40
0.448164054697959
 40
0.4646069610240227
 40
0.4952538605436909
 40
0.5241766840129147
 40
0.5517652098969449
 40
0.5776950296060499
 40
0.6022143258247871
 40
0.6253945150176408
 40
0.6472360208543865
 40
0.6681069281511004
 40
0.6877286815417688
 40
0.7061898666970543
 40
0.7237482252358582
 40
0.7402002639738043
 40
0.7556664080158544
 40
0.7705005059694783
 40
0.7847996906888459
 40
0.7986574398619498
 40
0.8136501688512154
 40
0.8313989049333984
 40
0.8521443898490618
 40
0.8758816360520173
 40
0.9024869269450987
 40
0.931972934354146
 40
0.9645374543212725
 40
1.0
 40
1.0
 40
1.0
 40
1.0
 10
358.8595462969317
 20
258.0136359736427
 30
0.0
 10
358.8592048688694
 20
257.9082419066222
 30
0.0
 10
358.8585362896646
 20
257.7018608580877
 30
0.0
 10
358.8633203068049
 20
257.3989404431231
 30
0.0
 10
358.8628290614846
 20
257.1087117005001
 30
0.0
 10
358.8687532260799
 20
256.8312892771354
 30
0.0
 10
358.8717416889947
 20
256.5665320517285
 30
0.0
 10
358.8801031913404
 20
256.3146127427868
 30
0.0
 10
358.8874926140862
 20
256.0754039699784
 30
0.0
 10
358.8937109543015
 20
255.8488445231924
 30
0.0
 10
358.9051348024431
 20
255.6352027713855
 30
0.0
 10
358.9147304532341
 20
255.4341599785837
 30
0.0
 10
358.9263792265995
 20
255.2458963742408
 30
0.0
 10
358.9401879347798
 20
255.070481352762
 30
0.0
 10
358.9526116616452
 20
254.9081056671876
 30
0.0
 10
358.9677171101669
 20
254.7581231116681
 30
0.0
 10
358.9832114087235
 20
254.6212404965035
 30
0.0
 10
359.0072099704014
 20
254.4574685784032
 30
0.0
 10
359.0376479138645
 20
254.2675537294533
 30
0.0
 10
359.0841042481527
 20
254.0519466534114
 30
0.0
 10
359.1347374789893
 20
253.8495909091173
 30
0.0
 10
359.1921659264324
 20
253.6606193977794
 30
0.0
 10
359.2553912046083
 20
253.4853606860685
 30
0.0
 10
359.3235730328467
 20
253.3230356031393
 30
0.0
 10
359.4009193635301
 20
253.1751790843271
 30
0.0
 10
359.4830477829206
 20
253.0404917664796
 30
0.0
 10
359.5679744477121
 20
252.9177299171663
 30
0.0
 10
359.6572910495867
 20
252.8088221557665
 30
0.0
 10
359.7459893158282
 20
252.7099925594804
 30
0.0
 10
359.8372264592498
 20
252.6239836433205
 30
0.0
 10
359.9310710067426
 20
252.5518640692241
 30
0.0
 10
360.0247523107603
 20
252.4886143417327
 30
0.0
 10
360.1225537971696
 20
252.4404566778682
 30
0.0
 10
360.2248408581352
 20
252.4017175736168
 30
0.0
 10
360.3397241960864
 20
252.3744144494547
 30
0.0
 10
360.4727259257966
 20
252.3496358746858
 30
0.0
 10
360.628646845674
 20
252.3272481096239
 30
0.0
 10
360.8079335666462
 20
252.3126076654579
 30
0.0
 10
361.0094248393395
 20
252.2992885272407
 30
0.0
 10
361.2334747304387
 20
252.2889331800052
 30
0.0
 10
361.4801035437474
 20
252.2832068868875
 30
0.0
 10
361.6521903132129
 20
252.2829089403768
 30
0.0
 10
361.7418992381083
 20
252.2827536207015
 30
0.0
  0
LINE
  5
88
330
1F
100
AcDbEntity
  8
0
  6
Continuous
 62
     7
370
    25
100
AcDbLine
 10
361.7418992381
 20
252.2827536207
 30
0.0
 11
364.5110168852
 21
252.2827536207
 31
0.0
  0
SPLINE
  5
89
330
1F
100
AcDbEntity
  8
0
  6
Continuous
 62
     7
370
    25
100
AcDbSpline
210
0.0
220
0.0
230
1.0
 70
     8
 71
     3
 72
    31
 73
    27
 74
     0
 42
0.00000001
 43
0.00000001
 40
0.0
 40
0.0
 40
0.0
 40
0.0
 40
0.0465006286097638
 40
0.089020017034336
 40
0.1275758384078051
 40
0.1625162601714181
 40
0.1938457455036799
 40
0.2214685742986634
 40
0.2456581843988526
 40
0.2664006039355094
 40
0.3048980389586365
 40
0.344246754338375
 40
0.3863170292600208
 40
0.4318947653185779
 40
0.4807769206131335
 40
0.5325866441081132
 40
0.5872279376778109
 40
0.6453957860682934
 40
0.6771193969628263
 40
0.7125388662695004
 40
0.7513788685962228
 40
0.7939217632395382
 40
0.8401798886769999
 40
0.8898956662081355
 40
0.943079949322785
 40
0.9999999999999999
 40
0.9999999999999999
 40
0.9999999999999999
 40
0.9999999999999999
 10
364.511016885167
 20
252.2827536207015
 30
0.0
 10
364.5963241907669
 20
252.2832009132178
 30
0.0
 10
364.7596350539681
 20
252.2840572024467
 30
0.0
 10
364.9934703529007
 20
252.2936841462466
 30
0.0
 10
365.2060520066494
 20
252.3052226608678
 30
0.0
 10
365.3971491196538
 20
252.3269018248677
 30
0.0
 10
365.5679693069171
 20
252.3498532220855
 30
0.0
 10
365.7169298947956
 20
252.3830729957854
 30
0.0
 10
365.8454471487175
 20
252.4182213491527
 30
0.0
 10
365.9879066090461
 20
252.4750908526853
 30
0.0
 10
366.1428933498257
 20
252.5710492645607
 30
0.0
 10
366.3057879004629
 20
252.7203938124434
 30
0.0
 10
366.4495218469842
 20
252.9051656651885
 30
0.0
 10
366.5694051078237
 20
253.1259799556498
 30
0.0
 10
366.6711285420951
 20
253.3746770438994
 30
0.0
 10
366.7551722810014
 20
253.6472253775354
 30
0.0
 10
366.8251936109552
 20
253.9412280964472
 30
0.0
 10
366.865629285757
 20
254.2035353791695
 30
0.0
 10
366.8900766777086
 20
254.432100235641
 30
0.0
 10
366.9079421135173
 20
254.6257057589759
 30
0.0
 10
366.9223740709544
 20
254.8394976366479
 30
0.0
 10
366.9339754884332
 20
255.0733600607221
 30
0.0
 10
366.9427452785574
 20
255.327312695778
 30
0.0
 10
366.9479933215615
 20
255.60087781211
 30
0.0
 10
366.9530197129507
 20
255.8940106044153
 30
0.0
 10
366.9534443972246
 20
256.0959863530919
 30
0.0
 10
366.9536639439905
 20
256.200400679525
 30
0.0
  0
LINE
  5
8A
330
1F
100
AcDbEntity
  8
0
  6
Continuous
 62
     7
370
    25
100
AcDbLine
 10
366.953663944
 20
256.2004006795
 30
0.0
 11
366.953663944
 21
260.753341856
 31
0.0
  0
LINE
  5
8B
330
1F
100
AcDbEntity
  8
0
  6
Continuous
 62
     7
370
    25
100
AcDbLine
 10
366.953663944
 20
260.753341856
 30
0.0
 11
358.8595462969
 21
260.753341856
 31
0.0
  0
LINE
  5
8C
330
1F
100
AcDbEntity
  8
0
  6
Continuous
 62
     7
370
    25
100
AcDbLine
 10
358.8595462969
 20
260.753341856
 30
0.0
 11
358.8595462969
 21
258.0136359736
 31
0.0
  0
LINE
  5
8D
330
1F
100
AcDbEntity
  8
0
  6
Continuous
 62
     7
370
    25
100
AcDbLine
 10
362.4360168852
 20
289.1015771501
 30
0.0
 11
360.9742521793
 21
289.1015771501
 31
0.0
  0
SPLINE
  5
8E
330
1F
100
AcDbEntity
  8
0
  6
Continuous
 62
     7
370
    25
100
AcDbSpline
210
0.0
220
0.0
230
1.0
 70
     8
 71
     3
 72
    19
 73
    15
 74
     0
 42
0.00000001
 43
0.00000001
 40
0.0
 40
0.0
 40
0.0
 40
0.0
 40
0.1150786402813015
 40
0.2175753191608787
 40
0.3088403253210106
 40
0.3889955941360946
 40
0.4569747911219629
 40
0.5128003434107382
 40
0.5588297152215371
 40
0.5956966110322617
 40
0.6648303533011124
 40
0.7528942661384342
 40
0.8632851192292554
 40
1.0
 40
1.0
 40
1.0
 40
1.0
 10
360.9742521792847
 20
289.1015771501133
 30
0.0
 10
360.9296408089186
 20
289.101826142406
 30
0.0
 10
360.8452955896681
 20
289.1022969037689
 30
0.0
 10
360.72562428222
 20
289.1066367680704
 30
0.0
 10
360.6196814977196
 20
289.1138450201206
 30
0.0
 10
360.5273061216976
 20
289.1234709356441
 30
0.0
 10
360.4494226561213
 20
289.1370612521886
 30
0.0
 10
360.3848375038428
 20
289.1505197217542
 30
0.0
 10
360.3343187574355
 20
289.1694546236451
 30
0.0
 10
360.2826598631805
 20
289.1988913227329
 30
0.0
 10
360.2351290973618
 20
289.2603882123169
 30
0.0
 10
360.2013122533602
 20
289.3592609344023
 30
0.0
 10
360.1801505966174
 20
289.4879583917576
 30
0.0
 10
360.1782467093702
 20
289.5838292858766
 30
0.0
 10
360.1771933557553
 20
289.6368712677603
 30
0.0
  0
SPLINE
  5
8F
330
1F
100
AcDbEntity
  8
0
  6
Continuous
 62
     7
370
    25
100
AcDbSpline
210
0.0
220
0.0
230
1.0
 70
     8
 71
     3
 72
    19
 73
    15
 74
     0
 42
0.00000001
 43
0.00000001
 40
0.0
 40
0.0
 40
0.0
 40
0.0
 40
0.1200102501400825
 40
0.2199781162778242
 40
0.3008814561421336
 40
0.3717541072490558
 40
0.4105803537188213
 40
0.4604558170179835
 40
0.5206473903625328
 40
0.5923895485340358
 40
0.6770469011576802
 40
0.7725824244042441
 40
0.8802078088981998
 40
1.0
 40
1.0
 40
1.0
 40
1.0
 10
360.1771933557553
 20
289.6368712677603
 30
0.0
 10
360.1788482787135
 20
289.6849728146563
 30
0.0
 10
360.1818817432261
 20
289.7731426806791
 30
0.0
 10
360.2037640089229
 20
289.8928802351564
 30
0.0
 10
360.2488012631336
 20
289.9847202323625
 30
0.0
 10
360.3029604544834
 20
290.0410888226047
 30
0.0
 10
360.3600208414244
 20
290.0713041797966
 30
0.0
 10
360.4179511969729
 20
290.086720018599
 30
0.0
 10
360.4888538368851
 20
290.1035226739044
 30
0.0
 10
360.5748746437938
 20
290.1166146231072
 30
0.0
 10
360.6756609110029
 20
290.1240227266991
 30
0.0
 10
360.7908158848111
 20
290.1320019774249
 30
0.0
 10
360.9203021120786
 20
290.1360821183182
 30
0.0
 10
361.0115051195178
 20
290.1365990002441
 30
0.0
 10
361.0595462969318
 20
290.1368712677603
 30
0.0
  0
LINE
  5
90
330
1F
100
AcDbEntity
  8
0
  6
Continuous
 62
     7
370
    25
100
AcDbLine
 10
361.0595462969
 20
290.1368712678
 30
0.0
 11
364.7874874734
 21
290.1368712678
 31
0.0
  0
SPLINE
  5
91
330
1F
100
AcDbEntity
  8
0
  6
Continuous
 62
     7
370
    25
100
AcDbSpline
210
0.0
220
0.0
230
1.0
 70
     8
 71
     3
 72
    19
 73
    15
 74
     0
 42
0.00000001
 43
0.00000001
 40
0.0
 40
0.0
 40
0.0
 40
0.0
 40
0.1202736223372618
 40
0.2290932450247756
 40
0.3252638144330023
 40
0.4100546918246408
 40
0.4826224144553508
 40
0.5428510246259167
 40
0.5930270355538653
 40
0.6330796621111964
 40
0.7036459981331825
 40
0.7848976267012994
 40
0.8820419929433678
 40
1.0
 40
1.0
 40
1.0
 40
1.0
 10
364.7874874734023
 20
290.1368712677603
 30
0.0
 10
364.8335669558032
 20
290.1365921374933
 30
0.0
 10
364.9213376402403
 20
290.1360604593295
 30
0.0
 10
365.0459371527691
 20
290.1320438711984
 30
0.0
 10
365.1566438066218
 20
290.1239569613275
 30
0.0
 10
365.2536280981503
 20
290.1168647915098
 30
0.0
 10
365.335776487677
 20
290.1026323581243
 30
0.0
 10
365.4048268817767
 20
290.0895193233751
 30
0.0
 10
365.4591117214636
 20
290.0699094868858
 30
0.0
 10
365.5155315464705
 20
290.0441321723721
 30
0.0
 10
365.567495445806
 20
289.9887843174427
 30
0.0
 10
365.6077123662387
 20
289.9013754236641
 30
0.0
 10
365.631947005527
 20
289.7895891025376
 30
0.0
 10
365.6345754801858
 20
289.7071043310261
 30
0.0
 10
365.6360168851671
 20
289.6618712677603
 30
0.0
  0
SPLINE
  5
92
330
1F
100
AcDbEntity
  8
0
  6
Continuous
 62
     7
370
    25
100
AcDbSpline
210
0.0
220
0.0
230
1.0
 70
     8
 71
     3
 72
    19
 73
    15
 74
     0
 42
0.00000001
 43
0.00000001
 40
0.0
 40
0.0
 40
0.0
 40
0.0
 40
0.1239399568680217
 40
0.2254695017196696
 40
0.3085256540242899
 40
0.38092358785869
 40
0.4201717067014338
 40
0.4692890654564885
 40
0.5293294616325399
 40
0.5998139233334686
 40
0.6824346036882357
 40
0.7771799571340008
 40
0.8829889243692789
 40
1.0
 40
1.0
 40
1.0
 40
1.0
 10
365.6360168851671
 20
289.6618712677603
 30
0.0
 10
365.6351020295893
 20
289.6077402966595
 30
0.0
 10
365.6334377395856
 20
289.5092661371542
 30
0.0
 10
365.6036316640571
 20
289.3773619231159
 30
0.0
 10
365.5600972286488
 20
289.2731573699814
 30
0.0
 10
365.50035650727
 20
289.2088174051147
 30
0.0
 10
365.4367558113555
 20
289.1784829906964
 30
0.0
 10
365.3760723099663
 20
289.155960298716
 30
0.0
 10
365.2993305224895
 20
289.1393617586696
 30
0.0
 10
365.2072869452434
 20
289.1270476625133
 30
0.0
 10
365.0999486866664
 20
289.1150118305563
 30
0.0
 10
364.9768334598224
 20
289.1062816995939
 30
0.0
 10
364.8384937075995
 20
289.1024278060452
 30
0.0
 10
364.7414105956834
 20
289.1018700490274
 30
0.0
 10
364.690428649873
 20
289.1015771501133
 30
0.0
  0
LINE
  5
93
330
1F
100
AcDbEntity
  8
0
  6
Continuous
 62
     7
370
    25
100
AcDbLine
 10
364.6904286499
 20
289.1015771501
 30
0.0
 11
363.5654286499
 21
289.1015771501
 31
0.0
  0
LINE
  5
94
330
1F
100
AcDbEntity
  8
0
  6
Continuous
 62
     7
370
    25
100
AcDbLine
 10
363.5654286499
 20
289.1015771501
 30
0.0
 11
363.5654286499
 21
285.3368712678
 31
0.0
  0
LINE
  5
95
330
1F
100
AcDbEntity
  8
0
  6
Continuous
 62
     7
370
    25
100
AcDbLine
 10
363.5654286499
 20
285.3368712678
 30
0.0
 11
363.972781591
 21
285.3368712678
 31
0.0
  0
SPLINE
  5
96
330
1F
100
AcDbEntity
  8
0
  6
Continuous
 62
     7
370
    25
100
AcDbSpline
210
0.0
220
0.0
230
1.0
 70
     8
 71
     3
 72
    31
 73
    27
 74
     0
 42
0.00000001
 43
0.00000001
 40
0.0
 40
0.0
 40
0.0
 40
0.0
 40
0.0486902079880274
 40
0.0936381821572949
 40
0.1353941804403056
 40
0.1737828149267259
 40
0.2089005049952526
 40
0.2412285155643724
 40
0.2703863674301363
 40
0.2970464203655055
 40
0.323261672347275
 40
0.3510314995047275
 40
0.3809398775300934
 40
0.4134765702697619
 40
0.4487217093202554
 40
0.4869896800603107
 40
0.5279946809863162
 40
0.57249624125154
 40
0.6193674496725986
 40
0.6678434704383756
 40
0.7180764870830898
 40
0.7702460177492636
 40
0.8243890652221093
 40
0.8806791803872611
 40
0.9391957070041602
 40
1.0
 40
1.0
 40
1.0
 40
1.0
 10
363.9727815910494
 20
285.3368712677604
 30
0.0
 10
364.0732908010007
 20
285.3375371922136
 30
0.0
 10
364.2665842803018
 20
285.3388178594737
 30
0.0
 10
364.5457679200098
 20
285.35357899472
 30
0.0
 10
364.8028698170726
 20
285.3782863694903
 30
0.0
 10
365.0384725378593
 20
285.4118468408919
 30
0.0
 10
365.2531245888875
 20
285.4532898277912
 30
0.0
 10
365.4453203028082
 20
285.5073760326581
 30
0.0
 10
365.6159978494291
 20
285.5708342165408
 30
0.0
 10
365.7694860352478
 20
285.6432168846931
 30
0.0
 10
365.9086875692363
 20
285.735708903341
 30
0.0
 10
366.0380733367036
 20
285.851336389651
 30
0.0
 10
366.1657415693009
 20
285.9872664586706
 30
0.0
 10
366.2871044329942
 20
286.148742961102
 30
0.0
 10
366.4043588336049
 20
286.3337387508741
 30
0.0
 10
366.5190185064156
 20
286.5406408862436
 30
0.0
 10
366.6274014485691
 20
286.7721423441885
 30
0.0
 10
366.7328287378416
 20
287.0243157497383
 30
0.0
 10
366.8295100763737
 20
287.2964838828162
 30
0.0
 10
366.9132342998747
 20
287.5852624766737
 30
0.0
 10
366.9830362104998
 20
287.8888750459909
 30
0.0
 10
367.0427173647803
 20
288.2065753129644
 30
0.0
 10
367.0856091454872
 20
288.5396013761333
 30
0.0
 10
367.1176554814913
 20
288.886878657581
 30
0.0
 10
367.1394833209305
 20
289.2488487402588
 30
0.0
 10
367.1410837042063
 20
289.4951718411197
 30
0.0
 10
367.1418992381082
 20
289.6206947971721
 30
0.0
  0
SPLINE
  5
97
330
1F
100
AcDbEntity
  8
0
  6
Continuous
 62
     7
370
    25
100
AcDbSpline
210
0.0
220
0.0
230
1.0
 70
     8
 71
     3
 72
    31
 73
    27
 74
     0
 42
0.00000001
 43
0.00000001
 40
0.0
 40
0.0
 40
0.0
 40
0.0
 40
0.0618469096799983
 40
0.1211081734511868
 40
0.1776198256760915
 40
0.2316720272296492
 40
0.2833353288950581
 40
0.3325018936705925
 40
0.37940949523878
 40
0.4240504556940349
 40
0.4664192287042052
 40
0.5059847342354112
 40
0.5429374541191265
 40
0.5775852022237846
 40
0.6102965613456871
 40
0.6412041118440251
 40
0.6707045917947728
 40
0.699181483927849
 40
0.7284394129810401
 40
0.7596552941621978
 40
0.7930445290205766
 40
0.8291979617337853
 40
0.8676654385944349
 40
0.9089568890431804
 40
0.9529540562630914
 40
1.0
 40
1.0
 40
1.0
 40
1.0
 10
367.1418992381082
 20
289.6206947971721
 30
0.0
 10
367.1405317190511
 20
289.7476659900145
 30
0.0
 10
367.1378538530748
 20
289.9963000660844
 30
0.0
 10
367.1239172449966
 20
290.3607764896188
 30
0.0
 10
367.0972091671176
 20
290.7084986167047
 30
0.0
 10
367.0605644613387
 20
291.0395821760981
 30
0.0
 10
367.0146555704885
 20
291.3543674658368
 30
0.0
 10
366.9546870800411
 20
291.65177560719
 30
0.0
 10
366.8887508538682
 20
291.9331782768129
 30
0.0
 10
366.80849054497
 20
292.1963071677574
 30
0.0
 10
366.7216094646826
 20
292.4413339873287
 30
0.0
 10
366.6248873913074
 20
292.6656942964937
 30
0.0
 10
366.5185730520973
 20
292.8678716799255
 30
0.0
 10
366.4056285920911
 20
293.0500959133173
 30
0.0
 10
366.2837402560262
 20
293.2112753337421
 30
0.0
 10
366.1525191714803
 20
293.3509310743777
 30
0.0
 10
366.0117812760344
 20
293.4677406177991
 30
0.0
 10
365.8615391338411
 20
293.5660939407674
 30
0.0
 10
365.6965165798767
 20
293.6452161730037
 30
0.0
 10
365.5164338249589
 20
293.7141760767116
 30
0.0
 10
365.3180235451529
 20
293.7736478303404
 30
0.0
 10
365.1007176464636
 20
293.8185879443687
 30
0.0
 10
364.865933368375
 20
293.8579346641876
 30
0.0
 10
364.6129772597512
 20
293.8835496444055
 30
0.0
 10
364.3415740623461
 20
293.8976959716535
 30
0.0
 10
364.1546615505279
 20
293.9002548606396
 30
0.0
 10
364.0580757086965
 20
293.9015771501133
 30
0.0
  0
LINE
  5
98
330
1F
100
AcDbEntity
  8
0
  6
Continuous
 62
     7
370
    25
100
AcDbLine
 10
364.0580757087
 20
293.9015771501
 30
0.0
 11
361.7360168852
 21
293.9015771501
 31
0.0
  0
SPLINE
  5
99
330
1F
100
AcDbEntity
  8
0
  6
Continuous
 62
     7
370
    25
100
AcDbSpline
210
0.0
220
0.0
230
1.0
 70
     8
 71
     3
 72
    35
 73
    31
 74
     0
 42
0.00000001
 43
0.00000001
 40
0.0
 40
0.0
 40
0.0
 40
0.0
 40
0.0350733701548873
 40
0.0679619794865931
 40
0.0986852128696892
 40
0.127248175806807
 40
0.1536650873987807
 40
0.1777121644588627
 40
0.1998961159307728
 40
0.2200542263873454
 40
0.2393246695147734
 40
0.2590905150904175
 40
0.2797930468976472
 40
0.3010720935166044
 40
0.3236299357950143
 40
0.3475991803996554
 40
0.3727530800802979
 40
0.3993557212612594
 40
0.4273650290004516
 40
0.4560771359881036
 40
0.4862873140557125
 40
0.5177668103695435
 40
0.5506111993989704
 40
0.5851330845365221
 40
0.6210248194358378
 40
0.6586639759012465
 40
0.7374421056028212
 40
0.8201791328081695
 40
0.9076589378296858
 40
1.0
 40
1.0
 40
1.0
 40
1.0
 10
361.736016885167
 20
293.9015771501133
 30
0.0
 10
361.6654278143212
 20
293.9012717302008
 30
0.0
 10
361.5286467475568
 20
293.9006799153358
 30
0.0
 10
361.3300454120917
 20
293.8967983121986
 30
0.0
 10
361.1447364523445
 20
293.8876525987763
 30
0.0
 10
360.9726278434256
 20
293.8760969875304
 30
0.0
 10
360.8142014596534
 20
293.8617079066495
 30
0.0
 10
360.6690657907986
 20
293.8438797302022
 30
0.0
 10
360.5368850835627
 20
293.8240372367505
 30
0.0
 10
360.4154024722758
 20
293.7989093109393
 30
0.0
 10
360.3004442322458
 20
293.7668303547357
 30
0.0
 10
360.1893710409494
 20
293.7200984765653
 30
0.0
 10
360.0795942910771
 20
293.6615170079446
 30
0.0
 10
359.9710863182312
 20
293.5897718415159
 30
0.0
 10
359.8637548152786
 20
293.5053298108701
 30
0.0
 10
359.756255892491
 20
293.408862027707
 30
0.0
 10
359.6524924463181
 20
293.2970688177291
 30
0.0
 10
359.5474795666896
 20
293.1755816478528
 30
0.0
 10
359.4467282926901
 20
293.0413005201914
 30
0.0
 10
359.3521370203148
 20
292.8939771218242
 30
0.0
 10
359.262605390779
 20
292.7354672399512
 30
0.0
 10
359.1789888543059
 20
292.5644619855046
 30
0.0
 10
359.1005989335675
 20
292.3814998520602
 30
0.0
 10
359.0298954954699
 20
292.1860195402053
 30
0.0
 10
358.9608353120431
 20
291.9797321494534
 30
0.0
 10
358.8809283517786
 20
291.6836616179654
 30
0.0
 10
358.7953067766077
 20
291.2917996874587
 30
0.0
 10
358.7218546402256
 20
290.7956918112306
 30
0.0
 10
358.6797232405546
 20
290.2684919455496
 30
0.0
 10
358.674165167502
 20
289.9065553642749
 30
0.0
 10
358.6713110028141
 20
289.7206947971721
 30
0.0
  0
SPLINE
  5
9A
330
1F
100
AcDbEntity
  8
0
  6
Continuous
 62
     7
370
    25
100
AcDbSpline
210
0.0
220
0.0
230
1.0
 70
     8
 71
     3
 72
    31
 73
    27
 74
     0
 42
0.00000001
 43
0.00000001
 40
0.0
 40
0.0
 40
0.0
 40
0.0
 40
0.064011018152937
 40
0.1251851588013314
 40
0.1840544990054664
 40
0.2402262397696828
 40
0.2940681065567691
 40
0.345603811060626
 40
0.3946925339026573
 40
0.4420520835830902
 40
0.4866031864083721
 40
0.5279262972852631
 40
0.5663793870167328
 40
0.6021256808494416
 40
0.6351720624702297
 40
0.6656404218145326
 40
0.6943644613622654
 40
0.7213740894610549
 40
0.7484957911868884
 40
0.7772928477584947
 40
0.808457803257099
 40
0.8414414606131119
 40
0.8772171161961839
 40
0.9153847072865786
 40
0.9562735728728361
 40
0.9999999999999999
 40
0.9999999999999999
 40
0.9999999999999999
 40
0.9999999999999999
 10
358.6713110028141
 20
289.7206947971721
 30
0.0
 10
358.6723451946573
 20
289.5907692162342
 30
0.0
 10
358.6743677444287
 20
289.3366761717646
 30
0.0
 10
358.6929728851369
 20
288.9634922725742
 30
0.0
 10
358.7200250006279
 20
288.6068303421241
 30
0.0
 10
358.759083546137
 20
288.2661682857251
 30
0.0
 10
358.812584123637
 20
287.9425674629551
 30
0.0
 10
358.8754224258536
 20
287.6353663269603
 30
0.0
 10
358.9482165034828
 20
287.3437994898444
 30
0.0
 10
359.035217871277
 20
287.0710194514632
 30
0.0
 10
359.1283866680574
 20
286.8170674980883
 30
0.0
 10
359.2284079596514
 20
286.5852370997245
 30
0.0
 10
359.3340763657744
 20
286.3757803409181
 30
0.0
 10
359.4451212444433
 20
286.1882877918881
 30
0.0
 10
359.5628933739469
 20
286.0245500089851
 30
0.0
 10
359.6853035266426
 20
285.8824170399878
 30
0.0
 10
359.8151487230726
 20
285.7645934636481
 30
0.0
 10
359.9517583717542
 20
285.6656850770411
 30
0.0
 10
360.1013511932168
 20
285.587643950647
 30
0.0
 10
360.2645508452156
 20
285.5193459617071
 30
0.0
 10
360.4448089557008
 20
285.4628012629226
 30
0.0
 10
360.6426763587449
 20
285.4176876037629
 30
0.0
 10
360.8567062814264
 20
285.3812164492754
 30
0.0
 10
361.0883832749818
 20
285.354639203612
 30
0.0
 10
361.337318420206
 20
285.3408174698248
 30
0.0
 10
361.5090409705143
 20
285.3382157512004
 30
0.0
 10
361.5977815910494
 20
285.3368712677604
 30
0.0
  0
LINE
  5
9B
330
1F
100
AcDbEntity
  8
0
  6
Continuous
 62
     7
370
    25
100
AcDbLine
 10
361.597781591
 20
285.3368712678
 30
0.0
 11
362.4360168852
 21
285.3368712678
 31
0.0
  0
LINE
  5
9C
330
1F
100
AcDbEntity
  8
0
  6
Continuous
 62
     7
370
    25
100
AcDbLine
 10
362.4360168852
 20
285.3368712678
 30
0.0
 11
362.4360168852
 21
289.1015771501
 31
0.0
  0
LINE
  5
9D
330
1F
100
AcDbEntity
  8
0
  6
Continuous
 62
     7
370
    25
100
AcDbLine
 10
361.4007227675
 20
300.3392242089
 30
0.0
 11
360.7198404146
 21
300.3392242089
 31
0.0
  0
SPLINE
  5
9E
330
1F
100
AcDbEntity
  8
0
  6
Continuous
 62
     7
370
    25
100
AcDbSpline
210
0.0
220
0.0
230
1.0
 70
     8
 71
     3
 72
    15
 73
    11
 74
     0
 42
0.00000001
 43
0.00000001
 40
0.0
 40
0.0
 40
0.0
 40
0.0
 40
0.2037247628650325
 40
0.3658836611983269
 40
0.4868289118350155
 40
0.5745048284494635
 40
0.6567366146906223
 40
0.751644902774301
 40
0.8658626125372372
 40
1.0
 40
1.0
 40
1.0
 40
1.0
 10
360.7198404145788
 20
300.3392242089369
 30
0.0
 10
360.6638825261481
 20
300.3400064461287
 30
0.0
 10
360.5633838101155
 20
300.3414113210376
 30
0.0
 10
360.4306371148277
 20
300.3584545818047
 30
0.0
 10
360.3312957532225
 20
300.3828368274355
 30
0.0
 10
360.2611264316353
 20
300.4254839511884
 30
0.0
 10
360.2215005877471
 20
300.4884197293396
 30
0.0
 10
360.1956510917426
 20
300.5643492792759
 30
0.0
 10
360.1802422952167
 20
300.6577531010722
 30
0.0
 10
360.1782625970874
 20
300.7259306870516
 30
0.0
 10
360.1771933557553
 20
300.7627536207015
 30
0.0
  0
SPLINE
  5
9F
330
1F
100
AcDbEntity
  8
0
  6
Continuous
 62
     7
370
    25
100
AcDbSpline
210
0.0
220
0.0
230
1.0
 70
     8
 71
     3
 72
    15
 73
    11
 74
     0
 42
0.00000001
 43
0.00000001
 40
0.0
 40
0.0
 40
0.0
 40
0.0
 40
0.1174551674802263
 40
0.2269977575262821
 40
0.3284023246625699
 40
0.4300110622749647
 40
0.5378214560964646
 40
0.6648553221412582
 40
0.8176277771481714
 40
0.9999999999999999
 40
0.9999999999999999
 40
0.9999999999999999
 40
0.9999999999999999
 10
360.1771933557553
 20
300.7627536207015
 30
0.0
 10
360.1784755458415
 20
300.7937880317104
 30
0.0
 10
360.1809535489854
 20
300.8537661651234
 30
0.0
 10
360.2034855678103
 20
300.9380727794995
 30
0.0
 10
360.2390030633214
 20
301.0131588230973
 30
0.0
 10
360.2922385871536
 20
301.0766188594296
 30
0.0
 10
360.3648329106106
 20
301.1295811762234
 30
0.0
 10
360.4625816587723
 20
301.1631281369868
 30
0.0
 10
360.5832538454274
 20
301.1826238321492
 30
0.0
 10
360.6717075010572
 20
301.184993535457
 30
0.0
 10
360.7198404145788
 20
301.1862830324662
 30
0.0
  0
SPLINE
  5
A0
330
1F
100
AcDbEntity
  8
0
  6
Continuous
 62
     7
370
    25
100
AcDbSpline
210
0.0
220
0.0
230
1.0
 70
     8
 71
     3
 72
    11
 73
     7
 74
     0
 42
0.00000001
 43
0.00000001
 40
0.0
 40
0.0
 40
0.0
 40
0.0
 40
0.3197667606252251
 40
0.5872795498921609
 40
0.8129753059735816
 40
1.0
 40
1.0
 40
1.0
 40
1.0
 10
360.7198404145788
 20
301.1862830324662
 30
0.0
 10
360.7827099826197
 20
301.1846731119608
 30
0.0
 10
360.8981754285867
 20
301.1817163525157
 30
0.0
 10
361.0562714974583
 20
301.1589750246976
 30
0.0
 10
361.186465524134
 20
301.1217795174993
 30
0.0
 10
361.2539607612225
 20
301.0761002749839
 30
0.0
 10
361.2845462969318
 20
301.0554006795251
 30
0.0
  0
SPLINE
  5
A1
330
1F
100
AcDbEntity
  8
0
  6
Continuous
 62
     7
370
    25
100
AcDbSpline
210
0.0
220
0.0
230
1.0
 70
     8
 71
     3
 72
    15
 73
    11
 74
     0
 42
0.00000001
 43
0.00000001
 40
0.0
 40
0.0
 40
0.0
 40
0.0
 40
0.0720175921985363
 40
0.1569714050882853
 40
0.2570282067842093
 40
0.3715924939677778
 40
0.504968086633601
 40
0.6535429705385122
 40
0.8183186907567329
 40
1.0
 40
1.0
 40
1.0
 40
1.0
 10
361.2845462969318
 20
301.0554006795251
 30
0.0
 10
361.302754206304
 20
301.0392639188484
 30
0.0
 10
361.3424406361141
 20
301.0040918182593
 30
0.0
 10
361.3943354321452
 20
300.9341338709357
 30
0.0
 10
361.4482357633192
 20
300.8488250345208
 30
0.0
 10
361.5049910508602
 20
300.7460212380303
 30
0.0
 10
361.5606683001802
 20
300.6244689266659
 30
0.0
 10
361.6201506752009
 20
300.4861208253523
 30
0.0
 10
361.6783755712651
 20
300.3296975489715
 30
0.0
 10
361.7161880853835
 20
300.2192181748558
 30
0.0
 10
361.736016885167
 20
300.1612830324663
 30
0.0
  0
SPLINE
  5
A2
330
1F
100
AcDbEntity
  8
0
  6
Continuous
 62
     7
370
    25
100
AcDbSpline
210
0.0
220
0.0
230
1.0
 70
     8
 71
     3
 72
    23
 73
    19
 74
     0
 42
0.00000001
 43
0.00000001
 40
0.0
 40
0.0
 40
0.0
 40
0.0
 40
0.093944609100294
 40
0.1839607928883221
 40
0.2694883953441792
 40
0.3511040853475046
 40
0.4282449096742739
 40
0.5009183591890904
 40
0.5693027959702669
 40
0.6336537830526933
 40
0.6937569634385998
 40
0.750047115962672
 40
0.801757285424452
 40
0.8495311660055759
 40
0.8927789948621069
 40
0.9323791442390077
 40
0.9680512004344186
 40
1.0
 40
1.0
 40
1.0
 40
1.0
 10
361.736016885167
 20
300.1612830324663
 30
0.0
 10
361.7691275886243
 20
300.0631671135507
 30
0.0
 10
361.8339644251329
 20
299.8710381301898
 30
0.0
 10
361.9326970822734
 20
299.5908765420877
 30
0.0
 10
362.028053370496
 20
299.3239379898365
 30
0.0
 10
362.1221552642136
 20
299.0716439976313
 30
0.0
 10
362.2133636338572
 20
298.8334142794831
 30
0.0
 10
362.3010295730872
 20
298.6094332524267
 30
0.0
 10
362.3885557070068
 20
298.4006114061266
 30
0.0
 10
362.4715699191901
 20
298.2049310999971
 30
0.0
 10
362.5540147385314
 20
298.0235234792219
 30
0.0
 10
362.6353034858925
 20
297.8570243473364
 30
0.0
 10
362.7104670916109
 20
297.7025851396143
 30
0.0
 10
362.7877897482161
 20
297.5655145560231
 30
0.0
 10
362.859526073792
 20
297.4406727719656
 30
0.0
 10
362.9296461931409
 20
297.3303745667813
 30
0.0
 10
362.9987712048657
 20
297.2344028070445
 30
0.0
 10
363.0460377975708
 20
297.1767551111602
 30
0.0
 10
363.0683698263435
 20
297.1495183265839
 30
0.0
  0
SPLINE
  5
A3
330
1F
100
AcDbEntity
  8
0
  6
Continuous
 62
     7
370
    25
100
AcDbSpline
210
0.0
220
0.0
230
1.0
 70
     8
 71
     3
 72
    15
 73
    11
 74
     0
 42
0.00000001
 43
0.00000001
 40
0.0
 40
0.0
 40
0.0
 40
0.0
 40
0.1128656008967578
 40
0.22610973197397
 40
0.3408950085778277
 40
0.4595339490894226
 40
0.5835843946798384
 40
0.7144110137656569
 40
0.8523429191600355
 40
1.0
 40
1.0
 40
1.0
 40
1.0
 10
363.0683698263435
 20
297.1495183265839
 30
0.0
 10
363.11835019529
 20
297.0954683007845
 30
0.0
 10
363.2184785580212
 20
296.9871869754772
 30
0.0
 10
363.3964886810346
 20
296.8529630866791
 30
0.0
 10
363.5904439340713
 20
296.7368161715811
 30
0.0
 10
363.8040029777611
 20
296.6427491814426
 30
0.0
 10
364.0363115369765
 20
296.5694142947248
 30
0.0
 10
364.2869862792906
 20
296.5168427482128
 30
0.0
 10
364.5568042851314
 20
296.485851082467
 30
0.0
 10
364.7427956122743
 20
296.4822582626607
 30
0.0
 10
364.8389580616376
 20
296.4804006795251
 30
0.0
  0
SPLINE
  5
A4
330
1F
100
AcDbEntity
  8
0
  6
Continuous
 62
     7
370
    25
100
AcDbSpline
210
0.0
220
0.0
230
1.0
 70
     8
 71
     3
 72
    31
 73
    27
 74
     0
 42
0.00000001
 43
0.00000001
 40
0.0
 40
0.0
 40
0.0
 40
0.0
 40
0.0393221727312167
 40
0.076263192947942
 40
0.110987844627353
 40
0.1434168106888086
 40
0.1743164474159251
 40
0.2033217964373049
 40
0.2313381565173708
 40
0.2580797669975607
 40
0.2854934353378122
 40
0.3153706349269506
 40
0.3476183428128741
 40
0.3825706274546041
 40
0.4207017210954405
 40
0.4620313193428586
 40
0.5065903539596874
 40
0.5546600076835236
 40
0.6050145245555044
 40
0.6568077527784845
 40
0.7099640495343585
 40
0.7647305605409648
 40
0.820976198707592
 40
0.8789776502282255
 40
0.9385432555226954
 40
1.0
 40
1.0
 40
1.0
 40
1.0
 10
364.8389580616376
 20
296.4804006795251
 30
0.0
 10
364.9085963450004
 20
296.4815940505931
 30
0.0
 10
365.0436559684082
 20
296.4839085281944
 30
0.0
 10
365.2397119140051
 20
296.4998796165334
 30
0.0
 10
365.4221851238325
 20
296.5272186255207
 30
0.0
 10
365.5914108951982
 20
296.5670550093034
 30
0.0
 10
365.7469823813018
 20
296.6180804924794
 30
0.0
 10
365.8900339491829
 20
296.680181613759
 30
0.0
 10
366.0194256532942
 20
296.7533214612086
 30
0.0
 10
366.1374481056846
 20
296.8390401090674
 30
0.0
 10
366.2458196331358
 20
296.941691353953
 30
0.0
 10
366.3461800043957
 20
297.0648079446002
 30
0.0
 10
366.44401969847
 20
297.2064324870613
 30
0.0
 10
366.5342792259734
 20
297.369922252321
 30
0.0
 10
366.622596912467
 20
297.552344387066
 30
0.0
 10
366.7064143353841
 20
297.7555269340838
 30
0.0
 10
366.7832185786603
 20
297.9800624972742
 30
0.0
 10
366.858051410209
 20
298.2219945095734
 30
0.0
 10
366.9256581778818
 20
298.4794144030839
 30
0.0
 10
366.9816078879452
 20
298.7487452734489
 30
0.0
 10
367.0330090694112
 20
299.0269505556797
 30
0.0
 10
367.0710681277451
 20
299.3152474801206
 30
0.0
 10
367.1047155178875
 20
299.6127013360213
 30
0.0
 10
367.1256809238447
 20
299.9198644543253
 30
0.0
 10
367.1395165939344
 20
300.2366440628247
 30
0.0
 10
367.1410967924649
 20
300.4509732551668
 30
0.0
 10
367.1418992381082
 20
300.5598124442309
 30
0.0
  0
SPLINE
  5
A5
330
1F
100
AcDbEntity
  8
0
  6
Continuous
 62
     7
370
    25
100
AcDbSpline
210
0.0
220
0.0
230
1.0
 70
     8
 71
     3
 72
    31
 73
    27
 74
     0
 42
0.00000001
 43
0.00000001
 40
0.0
 40
0.0
 40
0.0
 40
0.0
 40
0.0628430434260406
 40
0.1236383020576158
 40
0.1821602987408932
 40
0.2384912233578479
 40
0.2926705018355415
 40
0.345123922428638
 40
0.3955880160791553
 40
0.444221757675974
 40
0.4903121584737755
 40
0.53321202506915
 40
0.5730098625291098
 40
0.6096561732640979
 40
0.6438553654797721
 40
0.6755307150022081
 40
0.7048470502481944
 40
0.7326249845772062
 40
0.7602973181219039
 40
0.7892499664769889
 40
0.8197274680228578
 40
0.8519396521295691
 40
0.8858049658790736
 40
0.921729891927906
 40
0.9598603193653372
 40
1.0
 40
1.0
 40
1.0
 40
1.0
 10
367.1418992381082
 20
300.5598124442309
 30
0.0
 10
367.1413649804995
 20
300.6765035066181
 30
0.0
 10
367.1403138744424
 20
300.9060831710059
 30
0.0
 10
367.1227459720787
 20
301.2439129205357
 30
0.0
 10
367.0989125269267
 20
301.5692055181277
 30
0.0
 10
367.0629151667648
 20
301.8810237699029
 30
0.0
 10
367.0200371895724
 20
302.1806225962125
 30
0.0
 10
366.9633866841331
 20
302.46684686062
 30
0.0
 10
366.8993684370091
 20
302.7408994858027
 30
0.0
 10
366.8251325306967
 20
303.0002063622881
 30
0.0
 10
366.7408689352702
 20
303.2414911843174
 30
0.0
 10
366.6543112731435
 20
303.4645454793373
 30
0.0
 10
366.5581510146223
 20
303.6643678260097
 30
0.0
 10
366.4585999811801
 20
303.8442363785285
 30
0.0
 10
366.3515693843174
 20
304.0020448322506
 30
0.0
 10
366.2381253672163
 20
304.1378494166464
 30
0.0
 10
366.1202554959029
 20
304.2537507164117
 30
0.0
 10
365.992023015484
 20
304.3458437315786
 30
0.0
 10
365.8556391563174
 20
304.4234547635457
 30
0.0
 10
365.7077897768596
 20
304.4895654765377
 30
0.0
 10
365.5468300356135
 20
304.5453148466899
 30
0.0
 10
365.3731713114306
 20
304.5904060477361
 30
0.0
 10
365.1869754233524
 20
304.6258266463731
 30
0.0
 10
364.9879640834578
 20
304.6497493465106
 30
0.0
 10
364.7765181667888
 20
304.6671164691031
 30
0.0
 10
364.6311533444162
 20
304.6681208774872
 30
0.0
 10
364.5566051204612
 20
304.6686359736427
 30
0.0
  0
LINE
  5
A6
330
1F
100
AcDbEntity
  8
0
  6
Continuous
 62
     7
370
    25
100
AcDbLine
 10
364.5566051205
 20
304.6686359736
 30
0.0
 11
363.9418992381
 21
304.6686359736
 31
0.0
  0
LINE
  5
A7
330
1F
100
AcDbEntity
  8
0
  6
Continuous
 62
     7
370
    25
100
AcDbLine
 10
363.9418992381
 20
304.6686359736
 30
0.0
 11
363.9418992381
 21
301.0921653854
 31
0.0
  0
LINE
  5
A8
330
1F
100
AcDbEntity
  8
0
  6
Continuous
 62
     7
370
    25
100
AcDbLine
 10
363.9418992381
 20
301.0921653854
 30
0.0
 11
365.0168992381
 21
301.0921653854
 31
0.0
  0
SPLINE
  5
A9
330
1F
100
AcDbEntity
  8
0
  6
Continuous
 62
     7
370
    25
100
AcDbSpline
210
0.0
220
0.0
230
1.0
 70
     8
 71
     3
 72
    19
 73
    15
 74
     0
 42
0.00000001
 43
0.00000001
 40
0.0
 40
0.0
 40
0.0
 40
0.0
 40
0.1162185320628937
 40
0.2196273529170575
 40
0.3119780850596937
 40
0.3918665447022963
 40
0.4596157113179331
 40
0.5168156844733056
 40
0.5637325899880175
 40
0.6028031659341213
 40
0.6771168746324527
 40
0.7659303655173707
 40
0.8723314038864852
 40
0.9999999999999999
 40
0.9999999999999999
 40
0.9999999999999999
 40
0.9999999999999999
 10
365.0168992381082
 20
301.0921653854074
 30
0.0
 10
365.0521979144791
 20
301.0919186860442
 30
0.0
 10
365.1189046153401
 20
301.0914524787438
 30
0.0
 10
365.213591325008
 20
301.0870845038925
 30
0.0
 10
365.2970081450923
 20
301.0799620802348
 30
0.0
 10
365.3693587087571
 20
301.0703200455213
 30
0.0
 10
365.429990045585
 20
301.0564213892702
 30
0.0
 10
365.4806894090563
 20
301.0433333005103
 30
0.0
 10
365.5199800685066
 20
301.0239748938671
 30
0.0
 10
365.5588187488355
 20
300.9939307933105
 30
0.0
 10
365.5923742950703
 20
300.9407478703862
 30
0.0
 10
365.6173550138693
 20
300.8624855452894
 30
0.0
 10
365.6331617145566
 20
300.7653183926474
 30
0.0
 10
365.6350092072589
 20
300.6941940359784
 30
0.0
 10
365.6360168851671
 20
300.6554006795251
 30
0.0
  0
SPLINE
  5
AA
330
1F
100
AcDbEntity
  8
0
  6
Continuous
 62
     7
370
    25
100
AcDbSpline
210
0.0
220
0.0
230
1.0
 70
     8
 71
     3
 72
    15
 73
    11
 74
     0
 42
0.00000001
 43
0.00000001
 40
0.0
 40
0.0
 40
0.0
 40
0.0
 40
0.1531305797494575
 40
0.287275831159208
 40
0.4042592648215032
 40
0.5114158620844841
 40
0.6170376506936274
 40
0.7310177004437001
 40
0.8561150061883083
 40
1.0
 40
1.0
 40
1.0
 40
1.0
 10
365.6360168851671
 20
300.6554006795251
 30
0.0
 10
365.6345946603843
 20
300.6067276862034
 30
0.0
 10
365.6319265400961
 20
300.5154162405449
 30
0.0
 10
365.6056035349404
 20
300.389054591177
 30
0.0
 10
365.5634574348068
 20
300.2826744619717
 30
0.0
 10
365.5018434205656
 20
300.1961838973782
 30
0.0
 10
365.4179324605354
 20
300.1331086127686
 30
0.0
 10
365.3178181431271
 20
300.0871403873849
 30
0.0
 10
365.1980869752689
 20
300.0610348395007
 30
0.0
 10
365.1126184003009
 20
300.0583222799954
 30
0.0
 10
365.0668992381082
 20
300.0568712677604
 30
0.0
  0
SPLINE
  5
AB
330
1F
100
AcDbEntity
  8
0
  6
Continuous
 62
     7
370
    25
100
AcDbSpline
210
0.0
220
0.0
230
1.0
 70
     8
 71
     3
 72
    15
 73
    11
 74
     0
 42
0.00000001
 43
0.00000001
 40
0.0
 40
0.0
 40
0.0
 40
0.0
 40
0.1698935095539676
 40
0.3247781262416016
 40
0.4654016781891996
 40
0.5927634511676481
 40
0.7076490327265533
 40
0.8116200296176257
 40
0.9082326880696747
 40
1.0
 40
1.0
 40
1.0
 40
1.0
 10
365.0668992381082
 20
300.0568712677604
 30
0.0
 10
365.0134350508015
 20
300.0576292541286
 30
0.0
 10
364.9112298599139
 20
300.0590782641177
 30
0.0
 10
364.7652870405997
 20
300.0723498068757
 30
0.0
 10
364.6337332072564
 20
300.0935860738392
 30
0.0
 10
364.5173575228915
 20
300.1248774317249
 30
0.0
 10
364.4141532597552
 20
300.161251675287
 30
0.0
 10
364.3284205045757
 20
300.2116389673009
 30
0.0
 10
364.2531614061645
 20
300.2659823515794
 30
0.0
 10
364.2169111221028
 20
300.3132547722647
 30
0.0
 10
364.1992521792847
 20
300.3362830324662
 30
0.0
  0
SPLINE
  5
AC
330
1F
100
AcDbEntity
  8
0
  6
Continuous
 62
     7
370
    25
100
AcDbSpline
210
0.0
220
0.0
230
1.0
 70
     8
 71
     3
 72
    15
 73
    11
 74
     0
 42
0.00000001
 43
0.00000001
 40
0.0
 40
0.0
 40
0.0
 40
0.0
 40
0.0621904436729456
 40
0.1419976869508275
 40
0.240001501611581
 40
0.355513186585398
 40
0.4891129522332617
 40
0.6418157461460607
 40
0.8114882727373127
 40
1.0
 40
1.0
 40
1.0
 40
1.0
 10
364.1992521792847
 20
300.3362830324662
 30
0.0
 10
364.1797707637696
 20
300.3674424356947
 30
0.0
 10
364.1352893968858
 20
300.4385878227334
 30
0.0
 10
364.069723921452
 20
300.5644706358026
 30
0.0
 10
363.9980078918774
 20
300.7222048260355
 30
0.0
 10
363.912405794207
 20
300.9085853934267
 30
0.0
 10
363.8245921094598
 20
301.1291760874252
 30
0.0
 10
363.7241886230782
 20
301.3791141535396
 30
0.0
 10
363.616911050021
 20
301.6612295517044
 30
0.0
 10
363.5436773149877
 20
301.8597455806697
 30
0.0
 10
363.5051345322259
 20
301.9642242089368
 30
0.0
  0
SPLINE
  5
AD
330
1F
100
AcDbEntity
  8
0
  6
Continuous
 62
     7
370
    25
100
AcDbSpline
210
0.0
220
0.0
230
1.0
 70
     8
 71
     3
 72
    27
 73
    23
 74
     0
 42
0.00000001
 43
0.00000001
 40
0.0
 40
0.0
 40
0.0
 40
0.0
 40
0.0833371525000547
 40
0.1594873735481006
 40
0.228920670368095
 40
0.2913090475583272
 40
0.3461924179396631
 40
0.3943898016495864
 40
0.4359215207490141
 40
0.4700117894910267
 40
0.5313570438331524
 40
0.5922335464017304
 40
0.6538007110365339
 40
0.7166631748179212
 40
0.748944467931845
 40
0.7817411392984697
 40
0.8148132096650504
 40
0.8493163398597231
 40
0.8848957980364588
 40
0.9217827120448531
 40
0.959886089490966
 40
1.0
 40
1.0
 40
1.0
 40
1.0
 10
363.5051345322259
 20
301.9642242089368
 30
0.0
 10
363.4655264126192
 20
302.0701433423286
 30
0.0
 10
363.3897259469475
 20
302.2728472251274
 30
0.0
 10
363.2793837236081
 20
302.563218779889
 30
0.0
 10
363.176928741848
 20
302.8261742223462
 30
0.0
 10
363.0814967441584
 20
303.0608658272005
 30
0.0
 10
362.9945895496558
 20
303.2679003501024
 30
0.0
 10
362.9154233253834
 20
303.4474686348808
 30
0.0
 10
362.8440175419835
 20
303.5995683842663
 30
0.0
 10
362.7604174352685
 20
303.765611536869
 30
0.0
 10
362.6479353279933
 20
303.9461270933704
 30
0.0
 10
362.4904425455547
 20
304.1402732036595
 30
0.0
 10
362.309933744616
 20
304.3160591701554
 30
0.0
 10
362.1412307226494
 20
304.4464702672537
 30
0.0
 10
361.9937200970747
 20
304.538295688836
 30
0.0
 10
361.8747675281256
 20
304.5986707112229
 30
0.0
 10
361.7479030627806
 20
304.6485855255942
 30
0.0
 10
361.6145918097133
 20
304.6916200958558
 30
0.0
 10
361.4728608591454
 20
304.7239862414806
 30
0.0
 10
361.3242012294132
 20
304.7446972029814
 30
0.0
 10
361.168722005939
 20
304.7609707477336
 30
0.0
 10
361.0625343068924
 20
304.7621492322764
 30
0.0
 10
361.0080757086964
 20
304.7627536207015
 30
0.0
  0
SPLINE
  5
AE
330
1F
100
AcDbEntity
  8
0
  6
Continuous
 62
     7
370
    25
100
AcDbSpline
210
0.0
220
0.0
230
1.0
 70
     8
 71
     3
 72
    31
 73
    27
 74
     0
 42
0.00000001
 43
0.00000001
 40
0.0
 40
0.0
 40
0.0
 40
0.0
 40
0.0445500240818793
 40
0.0861552397737076
 40
0.1249553242124815
 40
0.1612124637314108
 40
0.1954832691041353
 40
0.2278386138447842
 40
0.2585388315264537
 40
0.2883575189319499
 40
0.3184475228979366
 40
0.3499459539185112
 40
0.3829927460526682
 40
0.4179309176590933
 40
0.454981658533935
 40
0.494172771451622
 40
0.5356190918823678
 40
0.579417720125009
 40
0.6253067888885305
 40
0.6730950502310041
 40
0.722574251088195
 40
0.7740492865266331
 40
0.827367943546435
 40
0.8828056117811569
 40
0.9404240482353464
 40
1.0
 40
1.0
 40
1.0
 40
1.0
 10
361.0080757086965
 20
304.7627536207015
 30
0.0
 10
360.9310550029055
 20
304.7620026480367
 30
0.0
 10
360.7821047495282
 20
304.7605503428736
 30
0.0
 10
360.5670497138954
 20
304.7387569885884
 30
0.0
 10
360.3677061881207
 20
304.7076547906773
 30
0.0
 10
360.1841495429596
 20
304.6619007787097
 30
0.0
 10
360.0157768908743
 20
304.6037880402631
 30
0.0
 10
359.8637635939511
 20
304.5312139759473
 30
0.0
 10
359.726026695553
 20
304.4478611601177
 30
0.0
 10
359.6060433787287
 20
304.3465620090084
 30
0.0
 10
359.4953070135734
 20
304.233538612551
 30
0.0
 10
359.395072566556
 20
304.1040464917697
 30
0.0
 10
359.2966219852302
 20
303.9629727898075
 30
0.0
 10
359.2072517451297
 20
303.8046708086449
 30
0.0
 10
359.125555052514
 20
303.6306602937711
 30
0.0
 10
359.0491165986835
 20
303.4420949483089
 30
0.0
 10
358.9788264706797
 20
303.238786430191
 30
0.0
 10
358.9141880698597
 20
303.0215128672264
 30
0.0
 10
358.8572265498435
 20
302.7907867003427
 30
0.0
 10
358.8076730156935
 20
302.5483733886815
 30
0.0
 10
358.764345408099
 20
302.2949311428168
 30
0.0
 10
358.7319548958292
 20
302.0302582821017
 30
0.0
 10
358.7029630977931
 20
301.7548600084879
 30
0.0
 10
358.6842401315356
 20
301.4678830307582
 30
0.0
 10
358.6745377299535
 20
301.1696846109922
 30
0.0
 10
358.6723984892128
 20
300.967171876405
 30
0.0
 10
358.6713110028141
 20
300.8642242089368
 30
0.0
  0
SPLINE
  5
AF
330
1F
100
AcDbEntity
  8
0
  6
Continuous
 62
     7
370
    25
100
AcDbSpline
210
0.0
220
0.0
230
1.0
 70
     8
 71
     3
 72
    31
 73
    27
 74
     0
 42
0.00000001
 43
0.00000001
 40
0.0
 40
0.0
 40
0.0
 40
0.0
 40
0.0634295605416121
 40
0.1249971740882845
 40
0.1841889653223651
 40
0.2413401852319019
 40
0.2965096975449957
 40
0.3497629378656352
 40
0.4011726595581108
 40
0.4507547561761976
 40
0.4975308719581454
 40
0.5409152865574833
 40
0.5810000660747203
 40
0.6176551836317336
 40
0.6511820201134026
 40
0.6819847762299993
 40
0.7101815647383571
 40
0.7359996784519066
 40
0.7616001936001455
 40
0.7886297079963465
 40
0.8176947703329267
 40
0.8488788475208922
 40
0.8825116002958383
 40
0.9190452289778965
 40
0.9580659358019126
 40
0.9999999999999999
 40
0.9999999999999999
 40
0.9999999999999999
 40
0.9999999999999999
 10
358.6713110028141
 20
300.8642242089368
 30
0.0
 10
358.6720987076425
 20
300.7499933619246
 30
0.0
 10
358.6736509945689
 20
300.5248848644304
 30
0.0
 10
358.6876616142907
 20
300.193437624238
 30
0.0
 10
358.7075184320074
 20
299.8736388811056
 30
0.0
 10
358.7369132599922
 20
299.5661134907014
 30
0.0
 10
358.7749991446963
 20
299.2703370561364
 30
0.0
 10
358.8217476485581
 20
298.9862490089864
 30
0.0
 10
358.8780497993919
 20
298.7141957363558
 30
0.0
 10
358.9399922006984
 20
298.4553216267199
 30
0.0
 10
359.0106282345653
 20
298.2137007143797
 30
0.0
 10
359.085133547377
 20
297.9912142704226
 30
0.0
 10
359.1641678062117
 20
297.7897734681144
 30
0.0
 10
359.2469621041772
 20
297.6090251642328
 30
0.0
 10
359.3379910649365
 20
297.4514219441554
 30
0.0
 10
359.4290878093281
 20
297.3116642144723
 30
0.0
 10
359.5278520382175
 20
297.1945440099401
 30
0.0
 10
359.6338314366269
 20
297.0974618974358
 30
0.0
 10
359.7497291904026
 20
297.0158530263852
 30
0.0
 10
359.8811447407217
 20
296.9490188327302
 30
0.0
 10
360.026860177737
 20
296.8895140886125
 30
0.0
 10
360.1898254961303
 20
296.8434327861553
 30
0.0
 10
360.3687405773726
 20
296.8068074982064
 30
0.0
 10
360.5637819210798
 20
296.7806024788451
 30
0.0
 10
360.7750289881798
 20
296.7666541448534
 30
0.0
 10
360.9208016679674
 20
296.7640846189968
 30
0.0
 10
360.9963110028141
 20
296.7627536207015
 30
0.0
  0
LINE
  5
B0
330
1F
100
AcDbEntity
  8
0
  6
Continuous
 62
     7
370
    25
100
AcDbLine
 10
360.9963110028
 20
296.7627536207
 30
0.0
 11
361.4007227675
 21
296.7627536207
 31
0.0
  0
LINE
  5
B1
330
1F
100
AcDbEntity
  8
0
  6
Continuous
 62
     7
370
    25
100
AcDbLine
 10
361.4007227675
 20
296.7627536207
 30
0.0
 11
361.4007227675
 21
300.3392242089
 31
0.0
  0
LINE
  5
B2
330
1F
100
AcDbEntity
  8
0
  6
Continuous
 62
     7
370
    25
100
AcDbLine
 10
316.953663944
 20
192.9709889148
 30
0.0
 11
316.953663944
 21
188.7909889148
 31
0.0
  0
LINE
  5
B3
330
1F
100
AcDbEntity
  8
0
  6
Continuous
 62
     7
370
    25
100
AcDbLine
 10
316.953663944
 20
188.7909889148
 30
0.0
 11
320.153663944
 21
188.7909889148
 31
0.0
  0
LINE
  5
B4
330
1F
100
AcDbEntity
  8
0
  6
Continuous
 62
     7
370
    25
100
AcDbLine
 10
320.153663944
 20
188.7909889148
 30
0.0
 11
320.153663944
 21
192.9709889148
 31
0.0
  0
LINE
  5
B5
330
1F
100
AcDbEntity
  8
0
  6
Continuous
 62
     7
370
    25
100
AcDbLine
 10
320.153663944
 20
192.9709889148
 30
0.0
 11
316.953663944
 21
192.9709889148
 31
0.0
  0
LINE
  5
B6
330
1F
100
AcDbEntity
  8
0
  6
Continuous
 62
     7
370
    25
100
AcDbLine
 10
314.953663944
 20
200.7909889148
 30
0.0
 11
314.953663944
 21
202.175957424
 31
0.0
  0
ARC
  5
B7
330
1F
100
AcDbEntity
  8
0
  6
Continuous
 62
     7
370
    25
100
AcDbCircle
 10
318.953663944
 20
202.175957424
 30
0.0
 40
4.0
100
AcDbArc
 50
113.0
 51
180.0
  0
LINE
  5
B8
330
1F
100
AcDbEntity
  8
0
  6
Continuous
 62
     7
370
    25
100
AcDbLine
 10
317.39073943
 20
205.8579768378
 30
0.0
 11
318.953663944
 21
206.5213989336
 31
0.0
  0
LINE
  5
B9
330
1F
100
AcDbEntity
  8
0
  6
Continuous
 62
     7
370
    25
100
AcDbLine
 10
318.953663944
 20
269.060578896
 30
0.0
 11
318.953663944
 21
206.5213989336
 31
0.0
  0
LINE
  5
BA
330
1F
100
AcDbEntity
  8
0
  6
Continuous
 62
     7
370
    25
100
AcDbLine
 10
317.39073943
 20
269.7240009918
 30
0.0
 11
318.953663944
 21
269.060578896
 31
0.0
  0
ARC
  5
BB
330
1F
100
AcDbEntity
  8
0
  6
Continuous
 62
     7
370
    25
100
AcDbCircle
 10
318.953663944
 20
273.4060204056
 30
0.0
 40
4.0
100
AcDbArc
 50
180.0
 51
247.0
  0
LINE
  5
BC
330
1F
100
AcDbEntity
  8
0
  6
Continuous
 62
     7
370
    25
100
AcDbLine
 10
314.953663944
 20
274.7909889148
 30
0.0
 11
314.953663944
 21
273.4060204056
 31
0.0
  0
LINE
  5
BD
330
1F
100
AcDbEntity
  8
0
  6
Continuous
 62
     7
370
    25
100
AcDbLine
 10
300.953663944
 20
274.7909889148
 30
0.0
 11
314.953663944
 21
274.7909889148
 31
0.0
  0
SPLINE
  5
BE
330
1F
100
AcDbEntity
  8
0
  6
Continuous
 62
     7
370
    25
100
AcDbSpline
210
0.0
220
0.0
230
1.0
 70
     8
 71
     3
 72
    29
 73
    25
 74
     0
 42
0.00000001
 43
0.00000001
 40
0.0
 40
0.0
 40
0.0
 40
0.0
 40
0.0446747556689082
 40
0.0887250866460015
 40
0.1321647107594471
 40
0.1750079324619953
 40
0.2172696618090214
 40
0.2589654326708135
 40
0.3001114199226463
 40
0.340724455328874
 40
0.3808220418110781
 40
0.4204223657655479
 40
0.4595443070736031
 40
0.4982074464305321
 40
0.6324329071466454
 40
0.7486542925340751
 40
0.8158211107057078
 40
0.8741250488991635
 40
0.8983873276952576
 40
0.9209027033903554
 40
0.941951106349687
 40
0.9618743978879948
 40
0.9810746317000405
 40
0.9999999999999999
 40
0.9999999999999999
 40
0.9999999999999999
 40
0.9999999999999999
 10
296.9536639439905
 20
285.7909889148191
 30
0.0
 10
296.9545601925533
 20
285.6059107830779
 30
0.0
 10
296.9563401626997
 20
285.2383413799744
 30
0.0
 10
296.9709798902127
 20
284.6909714790241
 30
0.0
 10
296.9944257422202
 20
284.1515211092059
 30
0.0
 10
297.0275031393445
 20
283.6199899715797
 30
0.0
 10
297.0699959405156
 20
283.0963780093913
 30
0.0
 10
297.1219613088044
 20
282.5806851506844
 30
0.0
 10
297.1833849092717
 20
282.0729112875574
 30
0.0
 10
297.2542704605308
 20
281.5730566297692
 30
0.0
 10
297.3346197152147
 20
281.0811203640905
 30
0.0
 10
297.4244249149383
 20
280.597105603245
 30
0.0
 10
297.523717660067
 20
280.1210012736133
 30
0.0
 10
297.7223083722605
 20
279.265440794593
 30
0.0
 10
298.0556085510719
 20
278.1128925275345
 30
0.0
 10
298.5702866266116
 20
276.8968575062383
 30
0.0
 10
299.0830404516793
 20
276.0342434974452
 30
0.0
 10
299.4759239364277
 20
275.5498441264464
 30
0.0
 10
299.796491281649
 20
275.2543751323135
 30
0.0
 10
300.0220820871587
 20
275.0859375400927
 30
0.0
 10
300.250679756403
 20
274.9542613331761
 30
0.0
 10
300.482367622574
 20
274.8606217411769
 30
0.0
 10
300.7170681605119
 20
274.8018089621766
 30
0.0
 10
300.8751786472775
 20
274.7945782206588
 30
0.0
 10
300.9536639439905
 20
274.7909889148191
 30
0.0
  0
LINE
  5
BF
330
1F
100
AcDbEntity
  8
0
  6
Continuous
 62
     7
370
    25
100
AcDbLine
 10
296.953663944
 20
292.9477615561
 30
0.0
 11
296.953663944
 21
285.7909889148
 31
0.0
  0
ARC
  5
C0
330
1F
100
AcDbEntity
  8
0
  6
Continuous
 62
     7
370
    25
100
AcDbCircle
 10
309.953663944
 20
292.9477615561
 30
0.0
 40
13.0
100
AcDbArc
 50
131.5941648132
 51
180.0
  0
LINE
  5
C1
330
1F
100
AcDbEntity
  8
0
  6
Continuous
 62
     7
370
    25
100
AcDbLine
 10
316.2475646586
 20
315.9174020164
 30
0.0
 11
301.3236132804
 21
302.6700156952
 31
0.0
  0
ARC
  5
C2
330
1F
100
AcDbEntity
  8
0
  6
Continuous
 62
     7
370
    25
100
AcDbCircle
 10
306.953663944
 20
326.3875218585
 30
0.0
 40
13.99999999999996
100
AcDbArc
 50
311.5941648132
 51
0.0
  0
LINE
  5
C3
330
1F
100
AcDbEntity
  8
0
  6
Continuous
 62
     7
370
    25
100
AcDbLine
 10
320.953663944
 20
339.8500673101
 30
0.0
 11
320.953663944
 21
326.3875218585
 31
0.0
  0
ARC
  5
C4
330
1F
100
AcDbEntity
  8
0
  6
Continuous
 62
     7
370
    25
100
AcDbCircle
 10
330.953663944
 20
339.8500673101
 30
0.0
 40
10.0
100
AcDbArc
 50
134.0
 51
180.0
  0
LINE
  5
C5
330
1F
100
AcDbEntity
  8
0
  6
Continuous
 62
     7
370
    25
100
AcDbLine
 10
355.4660782085
 20
377.4230665189
 30
0.0
 11
324.0070802394
 21
347.0434653134
 31
0.0
  0
ARC
  5
C6
330
1F
100
AcDbEntity
  8
0
  6
Continuous
 62
     7
370
    25
100
AcDbCircle
 10
363.801978654
 20
368.7909889148
 30
0.0
 40
12.00000000000005
100
AcDbArc
 50
90.0
 51
134.0
  0
LINE
  5
C7
330
1F
100
AcDbEntity
  8
0
  6
Continuous
 62
     7
370
    25
100
AcDbLine
 10
363.801978654
 20
380.7909889148
 30
0.0
 11
370.105349234
 21
380.7909889148
 31
0.0
  0
ARC
  5
C8
330
1F
100
AcDbEntity
  8
0
  6
Continuous
 62
     7
370
    25
100
AcDbCircle
 10
370.105349234
 20
368.7909889148
 30
0.0
 40
12.00000000000005
100
AcDbArc
 50
46.0
 51
90.0
  0
LINE
  5
C9
330
1F
100
AcDbEntity
  8
0
  6
Continuous
 62
     7
370
    25
100
AcDbLine
 10
378.4412496795
 20
377.4230665189
 30
0.0
 11
409.9002476486
 21
347.0434653134
 31
0.0
  0
ARC
  5
CA
330
1F
100
AcDbEntity
  8
0
  6
Continuous
 62
     7
370
    25
100
AcDbCircle
 10
402.953663944
 20
339.8500673101
 30
0.0
 40
10.00000000000002
100
AcDbArc
 50
0.0
 51
46.0
  0
LINE
  5
CB
330
1F
100
AcDbEntity
  8
0
  6
Continuous
 62
     7
370
    25
100
AcDbLine
 10
412.953663944
 20
339.8500673101
 30
0.0
 11
412.953663944
 21
326.3875218585
 31
0.0
  0
ARC
  5
CC
330
1F
100
AcDbEntity
  8
0
  6
Continuous
 62
     7
370
    25
100
AcDbCircle
 10
426.953663944
 20
326.3875218585
 30
0.0
 40
14.0
100
AcDbArc
 50
180.0
 51
228.4058351868
  0
LINE
  5
CD
330
1F
100
AcDbEntity
  8
0
  6
Continuous
 62
     7
370
    25
100
AcDbLine
 10
417.6597632294
 20
315.9174020164
 30
0.0
 11
432.5837146075
 21
302.6700156952
 31
0.0
  0
ARC
  5
CE
330
1F
100
AcDbEntity
  8
0
  6
Continuous
 62
     7
370
    25
100
AcDbCircle
 10
423.953663944
 20
292.9477615561
 30
0.0
 40
13.0
100
AcDbArc
 50
0.0
 51
48.4058351868
  0
LINE
  5
CF
330
1F
100
AcDbEntity
  8
0
  6
Continuous
 62
     7
370
    25
100
AcDbLine
 10
436.953663944
 20
292.9477615561
 30
0.0
 11
436.953663944
 21
285.7909889148
 31
0.0
  0
SPLINE
  5
D0
330
1F
100
AcDbEntity
  8
0
  6
Continuous
 62
     7
370
    25
100
AcDbSpline
210
0.0
220
0.0
230
1.0
 70
     8
 71
     3
 72
    22
 73
    18
 74
     0
 42
0.00000001
 43
0.00000001
 40
0.0
 40
0.0
 40
0.0
 40
0.0
 40
0.125
 40
0.125
 40
0.25
 40
0.25
 40
0.375
 40
0.375
 40
0.5
 40
0.5
 40
0.625
 40
0.625
 40
0.75
 40
0.75
 40
0.875
 40
0.875
 40
1.0
 40
1.0
 40
1.0
 40
1.0
 10
432.9536639439906
 20
274.7909889148191
 30
0.0
 10
433.1893662043861
 20
274.7909889148191
 30
0.0
 10
433.4338828958401
 20
274.848610734795
 30
0.0
 10
433.9291494114382
 20
275.1006489896786
 30
0.0
 10
434.1798488814703
 20
275.29528632245
 30
0.0
 10
434.6722366830058
 20
275.8313488838148
 30
0.0
 10
434.9138252104308
 20
276.1729005938096
 30
0.0
 10
435.3711807046316
 20
276.9951759890183
 30
0.0
 10
435.5868289228612
 20
277.4758434206091
 30
0.0
 10
435.9773532146124
 20
278.549785222925
 30
0.0
 10
436.1521413715545
 20
279.1428178230564
 30
0.0
 10
436.4511506061758
 20
280.4005454321087
 30
0.0
 10
436.5753512279922
 20
281.0649138825272
 30
0.0
 10
436.7702830684885
 20
282.4189803367498
 30
0.0
 10
436.8410602804054
 20
283.1084038793381
 30
0.0
 10
436.9327105549084
 20
284.4703867972328
 30
0.0
 10
436.9536639439906
 20
285.1428076987315
 30
0.0
 10
436.9536639439906
 20
285.7909889148191
 30
0.0
  0
LINE
  5
D1
330
1F
100
AcDbEntity
  8
0
  6
Continuous
 62
     7
370
    25
100
AcDbLine
 10
432.953663944
 20
274.7909889148
 30
0.0
 11
418.953663944
 21
274.7909889148
 31
0.0
  0
LINE
  5
D2
330
1F
100
AcDbEntity
  8
0
  6
Continuous
 62
     7
370
    25
100
AcDbLine
 10
418.953663944
 20
274.7909889148
 30
0.0
 11
418.953663944
 21
273.4060204056
 31
0.0
  0
ARC
  5
D3
330
1F
100
AcDbEntity
  8
0
  6
Continuous
 62
     7
370
    25
100
AcDbCircle
 10
414.953663944
 20
273.4060204056
 30
0.0
 40
4.0
100
AcDbArc
 50
293.0
 51
0.0
  0
LINE
  5
D4
330
1F
100
AcDbEntity
  8
0
  6
Continuous
 62
     7
370
    25
100
AcDbLine
 10
416.5165884579
 20
269.7240009918
 30
0.0
 11
414.953663944
 21
269.060578896
 31
0.0
  0
LINE
  5
D5
330
1F
100
AcDbEntity
  8
0
  6
Continuous
 62
     7
370
    25
100
AcDbLine
 10
414.953663944
 20
269.060578896
 30
0.0
 11
414.953663944
 21
206.5213989336
 31
0.0
  0
LINE
  5
D6
330
1F
100
AcDbEntity
  8
0
  6
Continuous
 62
     7
370
    25
100
AcDbLine
 10
416.5165884579
 20
205.8579768378
 30
0.0
 11
414.953663944
 21
206.5213989336
 31
0.0
  0
ARC
  5
D7
330
1F
100
AcDbEntity
  8
0
  6
Continuous
 62
     7
370
    25
100
AcDbCircle
 10
414.953663944
 20
202.175957424
 30
0.0
 40
4.0
100
AcDbArc
 50
0.0
 51
67.0
  0
LINE
  5
D8
330
1F
100
AcDbEntity
  8
0
  6
Continuous
 62
     7
370
    25
100
AcDbLine
 10
418.953663944
 20
200.7909889148
 30
0.0
 11
418.953663944
 21
202.175957424
 31
0.0
  0
LINE
  5
D9
330
1F
100
AcDbEntity
  8
0
  6
Continuous
 62
     7
370
    25
100
AcDbLine
 10
432.953663944
 20
200.7909889148
 30
0.0
 11
418.953663944
 21
200.7909889148
 31
0.0
  0
ARC
  5
DA
330
1F
100
AcDbEntity
  8
0
  6
Continuous
 62
     7
370
    25
100
AcDbCircle
 10
432.953663944
 20
196.7909889148
 30
0.0
 40
4.0
100
AcDbArc
 50
0.0
 51
90.0
  0
SPLINE
  5
DB
330
1F
100
AcDbEntity
  8
0
  6
Continuous
 62
     7
370
    25
100
AcDbSpline
210
0.0
220
0.0
230
1.0
 70
     8
 71
     3
 72
    35
 73
    31
 74
     0
 42
0.00000001
 43
0.00000001
 40
0.0
 40
0.0
 40
0.0
 40
0.0
 40
0.0079339265638843
 40
0.0158597643283736
 40
0.0237959238609288
 40
0.0317607441534775
 40
0.0397723673827795
 40
0.0478486203229277
 40
0.0560069060894032
 40
0.0642641091298383
 40
0.0726365154603818
 40
0.0811397491856039
 40
0.0897887254323655
 40
0.0985976190494774
 40
0.1075798478211923
 40
0.1167480685300601
 40
0.1261141839753693
 40
0.1548933530023052
 40
0.1852933581523474
 40
0.2175407176094287
 40
0.25182535274495
 40
0.3683010952985435
 40
0.5018863419772334
 40
0.6226421749884786
 40
0.7509882577645406
 40
0.8001116995020664
 40
0.8495398224820309
 40
0.8993077609879446
 40
0.9494499349890563
 40
1.0
 40
1.0
 40
1.0
 40
1.0
 10
296.9536639439905
 20
190.7909889148191
 30
0.0
 10
296.9546497319365
 20
190.7197736650793
 30
0.0
 10
296.9566203027977
 20
190.5774157709942
 30
0.0
 10
296.9726140523825
 20
190.3643172085545
 30
0.0
 10
296.9981600754363
 20
190.1519345369167
 30
0.0
 10
297.0341899559384
 20
189.9402709271653
 30
0.0
 10
297.0804515366128
 20
189.7293294427878
 30
0.0
 10
297.1370103957441
 20
189.5191126972454
 30
0.0
 10
297.2038458479836
 20
189.3096228259857
 30
0.0
 10
297.2809602267433
 20
189.1008614223117
 30
0.0
 10
297.3683494277331
 20
188.8928295323801
 30
0.0
 10
297.466011130904
 20
188.6855276788069
 30
0.0
 10
297.5739424798628
 20
188.4789559119217
 30
0.0
 10
297.6921416484319
 20
188.2731138794244
 30
0.0
 10
297.8206043209039
 20
188.0680009004421
 30
0.0
 10
297.9593368748656
 20
187.8636160587328
 30
0.0
 10
298.21007932213
 20
187.520822261905
 30
0.0
 10
298.6071498183366
 20
187.0494916070039
 30
0.0
 10
299.1915520666352
 20
186.4721022152051
 30
0.0
 10
299.8586143305764
 20
185.9122596338703
 30
0.0
 10
301.1906285322029
 20
184.9492797800829
 30
0.0
 10
303.4507375688269
 20
183.7335874600172
 30
0.0
 10
306.5859343552332
 20
182.5940399667779
 30
0.0
 10
309.9180318515653
 20
181.7447591961263
 30
0.0
 10
312.5606001044566
 20
181.3004840407741
 30
0.0
 10
314.5830518733474
 20
181.0612149381468
 30
0.0
 10
315.9089297479539
 20
180.9402430301363
 30
0.0
 10
317.2466334967781
 20
180.8544697806897
 30
0.0
 10
318.5962015683509
 20
180.8008469460788
 30
0.0
 10
319.4999561551429
 20
180.7942837874031
 30
0.0
 10
319.9536639439905
 20
180.7909889148191
 30
0.0
  0
LINE
  5
DC
330
1F
100
AcDbEntity
  8
0
  6
Continuous
 62
     7
370
    25
100
AcDbLine
 10
296.953663944
 20
196.7909889148
 30
0.0
 11
296.953663944
 21
190.7909889148
 31
0.0
  0
ARC
  5
DD
330
1F
100
AcDbEntity
  8
0
  6
Continuous
 62
     7
370
    25
100
AcDbCircle
 10
300.953663944
 20
196.7909889148
 30
0.0
 40
4.0
100
AcDbArc
 50
90.0
 51
180.0
  0
LINE
  5
DE
330
1F
100
AcDbEntity
  8
0
  6
Continuous
 62
     7
370
    25
100
AcDbLine
 10
300.953663944
 20
200.7909889148
 30
0.0
 11
314.953663944
 21
200.7909889148
 31
0.0
  0
CIRCLE
  5
DF
330
1F
100
AcDbEntity
  8
0
  6
Continuous
 62
     7
370
    25
100
AcDbCircle
 10
346.633663944
 20
343.2909889148
 30
0.0
 40
2.0
  0
CIRCLE
  5
E0
330
1F
100
AcDbEntity
  8
0
  6
Continuous
 62
     7
370
    25
100
AcDbCircle
 10
387.273663944
 20
343.2909889148
 30
0.0
 40
2.0
  0
CIRCLE
  5
E1
330
1F
100
AcDbEntity
  8
0
  6
Continuous
 62
     7
370
    25
100
AcDbCircle
 10
366.953663944
 20
368.7909889148
 30
0.0
 40
1.025000000000034
  0
CIRCLE
  5
E2
330
1F
100
AcDbEntity
  8
0
  6
Continuous
 62
     7
370
    25
100
AcDbCircle
 10
366.953663944
 20
190.7909889148
 30
0.0
 40
1.024999999999977
  0
CIRCLE
  5
E3
330
1F
100
AcDbEntity
  8
0
  6
Continuous
 62
     7
370
    25
100
AcDbCircle
 10
307.953663944
 20
287.7909889148
 30
0.0
 40
1.024999999999977
  0
CIRCLE
  5
E4
330
1F
100
AcDbEntity
  8
0
  6
Continuous
 62
     7
370
    25
100
AcDbCircle
 10
425.953663944
 20
287.7909889148
 30
0.0
 40
1.024999999999977
  0
LINE
  5
E5
330
1F
100
AcDbEntity
  8
0
  6
Continuous
 62
     7
370
    25
100
AcDbLine
 10
413.753663944
 20
188.7909889148
 30
0.0
 11
413.753663944
 21
192.9709889148
 31
0.0
  0
LINE
  5
E6
330
1F
100
AcDbEntity
  8
0
  6
Continuous
 62
     7
370
    25
100
AcDbLine
 10
416.953663944
 20
188.7909889148
 30
0.0
 11
413.753663944
 21
188.7909889148
 31
0.0
  0
LINE
  5
E7
330
1F
100
AcDbEntity
  8
0
  6
Continuous
 62
     7
370
    25
100
AcDbLine
 10
416.953663944
 20
192.9709889148
 30
0.0
 11
416.953663944
 21
188.7909889148
 31
0.0
  0
LINE
  5
E8
330
1F
100
AcDbEntity
  8
0
  6
Continuous
 62
     7
370
    25
100
AcDbLine
 10
413.753663944
 20
192.9709889148
 30
0.0
 11
416.953663944
 21
192.9709889148
 31
0.0
  0
LINE
  5
E9
330
1F
100
AcDbEntity
  8
0
  6
Continuous
 62
     7
370
    25
100
AcDbLine
 10
366.953663944
 20
347.3783107193
 30
0.0
 11
362.0995619777
 21
343.8515992055
 31
0.0
  0
LINE
  5
EA
330
1F
100
AcDbEntity
  8
0
  6
Continuous
 62
     7
370
    25
100
AcDbLine
 10
371.8077659102
 20
343.8515992055
 30
0.0
 11
366.953663944
 21
347.3783107193
 31
0.0
  0
LINE
  5
EB
330
1F
100
AcDbEntity
  8
0
  6
Continuous
 62
     7
370
    25
100
AcDbLine
 10
369.953663944
 20
349.5579383033
 30
0.0
 11
371.8077659102
 21
343.8515992055
 31
0.0
  0
LINE
  5
EC
330
1F
100
AcDbEntity
  8
0
  6
Continuous
 62
     7
370
    25
100
AcDbLine
 10
374.8077659102
 20
353.084649817
 30
0.0
 11
369.953663944
 21
349.5579383033
 31
0.0
  0
LINE
  5
ED
330
1F
100
AcDbEntity
  8
0
  6
Continuous
 62
     7
370
    25
100
AcDbLine
 10
368.8077659102
 20
353.084649817
 30
0.0
 11
374.8077659102
 21
353.084649817
 31
0.0
  0
LINE
  5
EE
330
1F
100
AcDbEntity
  8
0
  6
Continuous
 62
     7
370
    25
100
AcDbLine
 10
366.953663944
 20
358.7909889148
 30
0.0
 11
368.8077659102
 21
353.084649817
 31
0.0
  0
LINE
  5
EF
330
1F
100
AcDbEntity
  8
0
  6
Continuous
 62
     7
370
    25
100
AcDbLine
 10
365.0995619777
 20
353.084649817
 30
0.0
 11
366.953663944
 21
358.7909889148
 31
0.0
  0
LINE
  5
F0
330
1F
100
AcDbEntity
  8
0
  6
Continuous
 62
     7
370
    25
100
AcDbLine
 10
359.0995619777
 20
353.084649817
 30
0.0
 11
365.0995619777
 21
353.084649817
 31
0.0
  0
LINE
  5
F1
330
1F
100
AcDbEntity
  8
0
  6
Continuous
 62
     7
370
    25
100
AcDbLine
 10
363.953663944
 20
349.5579383033
 30
0.0
 11
359.0995619777
 21
353.084649817
 31
0.0
  0
LINE
  5
F2
330
1F
100
AcDbEntity
  8
0
  6
Continuous
 62
     7
370
    25
100
AcDbLine
 10
362.0995619777
 20
343.8515992055
 30
0.0
 11
363.953663944
 21
349.5579383033
 31
0.0
  0
LINE
  5
F3
330
1F
100
AcDbEntity
  8
0
  6
Continuous
 62
     7
370
    25
100
AcDbLine
 10
366.953663944
 20
274.0992242089
 30
0.0
 11
366.953663944
 21
277.9242242089
 31
0.0
  0
LINE
  5
F4
330
1F
100
AcDbEntity
  8
0
  6
Continuous
 62
     7
370
    25
100
AcDbLine
 10
366.953663944
 20
277.9242242089
 30
0.0
 11
365.5418992381
 21
278.1109889148
 31
0.0
  0
LINE
  5
F5
330
1F
100
AcDbEntity
  8
0
  6
Continuous
 62
     7
370
    25
100
AcDbLine
 10
365.5418992381
 20
278.1109889148
 30
0.0
 11
365.5418992381
 21
279.1256947972
 31
0.0
  0
LINE
  5
F6
330
1F
100
AcDbEntity
  8
0
  6
Continuous
 62
     7
370
    25
100
AcDbLine
 10
365.5418992381
 20
279.1256947972
 30
0.0
 11
366.953663944
 21
279.3124595031
 31
0.0
  0
LINE
  5
F7
330
1F
100
AcDbEntity
  8
0
  6
Continuous
 62
     7
370
    25
100
AcDbLine
 10
366.953663944
 20
279.3124595031
 30
0.0
 11
366.953663944
 21
283.2286359736
 31
0.0
  0
LINE
  5
F8
330
1F
100
AcDbEntity
  8
0
  6
Continuous
 62
     7
370
    25
100
AcDbLine
 10
366.953663944
 20
283.2286359736
 30
0.0
 11
358.8595462969
 21
281.3992242089
 31
0.0
  0
LINE
  5
F9
330
1F
100
AcDbEntity
  8
0
  6
Continuous
 62
     7
370
    25
100
AcDbLine
 10
358.8595462969
 20
281.3992242089
 30
0.0
 11
358.8595462969
 21
276.1227536207
 31
0.0
  0
LINE
  5
FA
330
1F
100
AcDbEntity
  8
0
  6
Continuous
 62
     7
370
    25
100
AcDbLine
 10
358.8595462969
 20
276.1227536207
 30
0.0
 11
366.953663944
 21
274.0992242089
 31
0.0
  0
LINE
  5
FB
330
1F
100
AcDbEntity
  8
0
  6
Continuous
 62
     7
370
    25
100
AcDbLine
 10
366.953663944
 20
263.8027536207
 30
0.0
 11
366.953663944
 21
267.1571653854
 31
0.0
  0
LINE
  5
FC
330
1F
100
AcDbEntity
  8
0
  6
Continuous
 62
     7
370
    25
100
AcDbLine
 10
366.953663944
 20
267.1571653854
 30
0.0
 11
363.3595462969
 21
268.6968712678
 31
0.0
  0
LINE
  5
FD
330
1F
100
AcDbEntity
  8
0
  6
Continuous
 62
     7
370
    25
100
AcDbLine
 10
363.3595462969
 20
268.6968712678
 30
0.0
 11
366.953663944
 21
268.6968712678
 31
0.0
  0
LINE
  5
FE
330
1F
100
AcDbEntity
  8
0
  6
Continuous
 62
     7
370
    25
100
AcDbLine
 10
366.953663944
 20
268.6968712678
 30
0.0
 11
366.953663944
 21
271.8968712678
 31
0.0
  0
LINE
  5
FF
330
1F
100
AcDbEntity
  8
0
  6
Continuous
 62
     7
370
    25
100
AcDbLine
 10
366.953663944
 20
271.8968712678
 30
0.0
 11
358.8595462969
 21
271.8968712678
 31
0.0
  0
LINE
  5
100
330
1F
100
AcDbEntity
  8
0
  6
Continuous
 62
     7
370
    25
100
AcDbLine
 10
358.8595462969
 20
271.8968712678
 30
0.0
 11
358.8595462969
 21
268.7498124442
 31
0.0
  0
LINE
  5
101
330
1F
100
AcDbEntity
  8
0
  6
Continuous
 62
     7
370
    25
100
AcDbLine
 10
358.8595462969
 20
268.7498124442
 30
0.0
 11
362.4198404146
 21
267.0027536207
 31
0.0
  0
LINE
  5
102
330
1F
100
AcDbEntity
  8
0
  6
Continuous
 62
     7
370
    25
100
AcDbLine
 10
362.4198404146
 20
267.0027536207
 30
0.0
 11
358.8595462969
 21
267.0027536207
 31
0.0
  0
LINE
  5
103
330
1F
100
AcDbEntity
  8
0
  6
Continuous
 62
     7
370
    25
100
AcDbLine
 10
358.8595462969
 20
267.0027536207
 30
0.0
 11
358.8595462969
 21
263.8027536207
 31
0.0
  0
LINE
  5
104
330
1F
100
AcDbEntity
  8
0
  6
Continuous
 62
     7
370
    25
100
AcDbLine
 10
358.8595462969
 20
263.8027536207
 30
0.0
 11
366.953663944
 21
263.8027536207
 31
0.0
  0
LINE
  5
105
330
1F
100
AcDbEntity
  8
0
  6
Continuous
 62
     7
370
    25
100
AcDbLine
 10
366.953663944
 20
223.1815771501
 30
0.0
 11
366.953663944
 21
227.0065771501
 31
0.0
  0
LINE
  5
106
330
1F
100
AcDbEntity
  8
0
  6
Continuous
 62
     7
370
    25
100
AcDbLine
 10
366.953663944
 20
227.0065771501
 30
0.0
 11
365.5418992381
 21
227.193341856
 31
0.0
  0
LINE
  5
107
330
1F
100
AcDbEntity
  8
0
  6
Continuous
 62
     7
370
    25
100
AcDbLine
 10
365.5418992381
 20
227.193341856
 30
0.0
 11
365.5418992381
 21
228.2080477383
 31
0.0
  0
LINE
  5
108
330
1F
100
AcDbEntity
  8
0
  6
Continuous
 62
     7
370
    25
100
AcDbLine
 10
365.5418992381
 20
228.2080477383
 30
0.0
 11
366.953663944
 21
228.3948124442
 31
0.0
  0
LINE
  5
109
330
1F
100
AcDbEntity
  8
0
  6
Continuous
 62
     7
370
    25
100
AcDbLine
 10
366.953663944
 20
228.3948124442
 30
0.0
 11
366.953663944
 21
232.3109889148
 31
0.0
  0
LINE
  5
10A
330
1F
100
AcDbEntity
  8
0
  6
Continuous
 62
     7
370
    25
100
AcDbLine
 10
366.953663944
 20
232.3109889148
 30
0.0
 11
358.8595462969
 21
230.4815771501
 31
0.0
  0
LINE
  5
10B
330
1F
100
AcDbEntity
  8
0
  6
Continuous
 62
     7
370
    25
100
AcDbLine
 10
358.8595462969
 20
230.4815771501
 30
0.0
 11
358.8595462969
 21
225.2051065619
 31
0.0
  0
LINE
  5
10C
330
1F
100
AcDbEntity
  8
0
  6
Continuous
 62
     7
370
    25
100
AcDbLine
 10
358.8595462969
 20
225.2051065619
 30
0.0
 11
366.953663944
 21
223.1815771501
 31
0.0
  0
LINE
  5
10D
330
1F
100
AcDbEntity
  8
0
  6
Continuous
 62
     7
370
    25
100
AcDbLine
 10
366.953663944
 20
214.1542242089
 30
0.0
 11
366.953663944
 21
219.6189300913
 31
0.0
  0
LINE
  5
10E
330
1F
100
AcDbEntity
  8
0
  6
Continuous
 62
     7
370
    25
100
AcDbLine
 10
366.953663944
 20
219.6189300913
 30
0.0
 11
358.8595462969
 21
221.6380477383
 31
0.0
  0
LINE
  5
10F
330
1F
100
AcDbEntity
  8
0
  6
Continuous
 62
     7
370
    25
100
AcDbLine
 10
358.8595462969
 20
221.6380477383
 30
0.0
 11
358.8595462969
 21
217.7056947972
 31
0.0
  0
SPLINE
  5
110
330
1F
100
AcDbEntity
  8
0
  6
Continuous
 62
     7
370
    25
100
AcDbSpline
210
0.0
220
0.0
230
1.0
 70
     8
 71
     3
 72
    15
 73
    11
 74
     0
 42
0.00000001
 43
0.00000001
 40
0.0
 40
0.0
 40
0.0
 40
0.0
 40
0.1478342535012709
 40
0.2890445220297106
 40
0.4239493951638103
 40
0.5520175262646906
 40
0.6737902840721203
 40
0.7888169083565532
 40
0.8976173376425123
 40
1.0
 40
1.0
 40
1.0
 40
1.0
 10
358.8595462969317
 20
217.7056947971721
 30
0.0
 10
359.1344165517785
 20
217.653999655702
 30
0.0
 10
359.6718409953745
 20
217.552925668425
 30
0.0
 10
360.4622783530774
 20
217.4167004701482
 30
0.0
 10
361.2170807170264
 20
217.2941836509675
 30
0.0
 10
361.9371760403624
 20
217.1876702848803
 30
0.0
 10
362.6216989767008
 20
217.0984444401869
 30
0.0
 10
363.2711281089445
 20
217.0224688955609
 30
0.0
 10
363.885487687624
 20
216.9631266297226
 30
0.0
 10
364.2839949568155
 20
216.9343511714941
 30
0.0
 10
364.4771933557553
 20
216.920400679525
 30
0.0
  0
SPLINE
  5
111
330
1F
100
AcDbEntity
  8
0
  6
Continuous
 62
     7
370
    25
100
AcDbSpline
210
0.0
220
0.0
230
1.0
 70
     8
 71
     3
 72
    15
 73
    11
 74
     0
 42
0.00000001
 43
0.00000001
 40
0.0
 40
0.0
 40
0.0
 40
0.0
 40
0.137923963722398
 40
0.2719129472318717
 40
0.4023644989582936
 40
0.5292872605819107
 40
0.652331117259778
 40
0.7718661704191259
 40
0.8878567977541859
 40
1.0
 40
1.0
 40
1.0
 40
1.0
 10
364.4771933557553
 20
216.920400679525
 30
0.0
 10
364.2909046190498
 20
216.9053784019797
 30
0.0
 10
363.9236419761659
 20
216.8757624335052
 30
0.0
 10
363.3804287756761
 20
216.828939289745
 30
0.0
 10
362.852469629454
 20
216.7789344422812
 30
0.0
 10
362.3396922333184
 20
216.7261283663867
 30
0.0
 10
361.8421028761709
 20
216.6703798872843
 30
0.0
 10
361.359865680298
 20
216.6109928572711
 30
0.0
 10
360.8924933921726
 20
216.5516962224478
 30
0.0
 10
360.5864552999222
 20
216.508038079344
 30
0.0
 10
360.436016885167
 20
216.4865771501133
 30
0.0
  0
LINE
  5
112
330
1F
100
AcDbEntity
  8
0
  6
Continuous
 62
     7
370
    25
100
AcDbLine
 10
360.4360168852
 20
216.4865771501
 30
0.0
 11
358.8595462969
 21
216.2615771501
 31
0.0
  0
LINE
  5
113
330
1F
100
AcDbEntity
  8
0
  6
Continuous
 62
     7
370
    25
100
AcDbLine
 10
358.8595462969
 20
216.2615771501
 30
0.0
 11
358.8595462969
 21
212.3204006795
 31
0.0
  0
LINE
  5
114
330
1F
100
AcDbEntity
  8
0
  6
Continuous
 62
     7
370
    25
100
AcDbLine
 10
358.8595462969
 20
212.3204006795
 30
0.0
 11
366.953663944
 21
214.1542242089
 31
0.0
  0
LINE
  5
115
330
1F
100
AcDbEntity
  8
0
  6
Continuous
 62
     7
370
    25
100
AcDbLine
 10
366.953663944
 20
206.353341856
 30
0.0
 11
366.953663944
 21
210.1180477383
 31
0.0
  0
LINE
  5
116
330
1F
100
AcDbEntity
  8
0
  6
Continuous
 62
     7
370
    25
100
AcDbLine
 10
366.953663944
 20
210.1180477383
 30
0.0
 11
358.8595462969
 21
210.1180477383
 31
0.0
  0
LINE
  5
117
330
1F
100
AcDbEntity
  8
0
  6
Continuous
 62
     7
370
    25
100
AcDbLine
 10
358.8595462969
 20
210.1180477383
 30
0.0
 11
358.8595462969
 21
206.353341856
 31
0.0
  0
LINE
  5
118
330
1F
100
AcDbEntity
  8
0
  6
Continuous
 62
     7
370
    25
100
AcDbLine
 10
358.8595462969
 20
206.353341856
 30
0.0
 11
366.953663944
 21
206.353341856
 31
0.0
  0
SPLINE
  5
119
330
1F
100
AcDbEntity
  8
0
  6
Continuous
 62
     7
370
    25
100
AcDbSpline
210
0.0
220
0.0
230
1.0
 70
     8
 71
     3
 72
    33
 73
    29
 74
     0
 42
0.00000001
 43
0.00000001
 40
0.0
 40
0.0
 40
0.0
 40
0.0
 40
0.0282383852978395
 40
0.0563461107343362
 40
0.0843289217362894
 40
0.1121926410017033
 40
0.139943166193237
 40
0.1675864674230722
 40
0.1951285845300434
 40
0.2225756241510694
 40
0.2499337565901726
 40
0.3781521796799781
 40
0.4988159178209318
 40
0.5898024721057801
 40
0.6728206167046816
 40
0.7486789441279186
 40
0.7829242383992419
 40
0.8151428235820092
 40
0.8455251673465394
 40
0.8742982263439781
 40
0.8916306767957285
 40
0.9083097793269892
 40
0.9244200788087452
 40
0.9400553499318511
 40
0.9553181256411332
 40
0.970318579206552
 40
0.9851727219802815
 40
1.0
 40
1.0
 40
1.0
 40
1.0
 10
413.9536639439906
 20
180.7909889148191
 30
0.0
 10
414.2071379234942
 20
180.7920177016365
 30
0.0
 10
414.7129130507456
 20
180.7940705150435
 30
0.0
 10
415.4697162940325
 20
180.810768082233
 30
0.0
 10
416.2228496702908
 20
180.8374516901133
 30
0.0
 10
416.9723132350035
 20
180.8750860801204
 30
0.0
 10
417.7181066339281
 20
180.9234146285545
 30
0.0
 10
418.4602307429564
 20
180.9825054769148
 30
0.0
 10
419.1986819147402
 20
181.0523416334109
 30
0.0
 10
419.9334732471845
 20
181.1329237624128
 30
0.0
 10
421.5636426386352
 20
181.3365998936856
 30
0.0
 10
424.0114090812143
 20
181.7495413452306
 30
0.0
 10
426.9710487650108
 20
182.505211312038
 30
0.0
 10
429.4732285169555
 20
183.3713664148551
 30
0.0
 10
431.5221216169183
 20
184.2917969291397
 30
0.0
 10
433.0223380811285
 20
185.1693250506301
 30
0.0
 10
434.0576770477295
 20
185.9192156373053
 30
0.0
 10
434.723664347474
 20
186.4792834949114
 30
0.0
 10
435.3071521125113
 20
187.057087821549
 30
0.0
 10
435.7495913697896
 20
187.5835871184839
 30
0.0
 10
436.0754276181871
 20
188.0438714085276
 30
0.0
 10
436.309835589621
 20
188.4283310035127
 30
0.0
 10
436.508313540752
 20
188.815516645868
 30
0.0
 10
436.6707532002591
 20
189.2054341387048
 30
0.0
 10
436.7973360253564
 20
189.5980705993771
 30
0.0
 10
436.8871027860861
 20
189.9933896053766
 30
0.0
 10
436.9433035035611
 20
190.3913348089656
 30
0.0
 10
436.950212548314
 20
190.6578512878558
 30
0.0
 10
436.9536639439906
 20
190.7909889148191
 30
0.0
  0
LINE
  5
11A
330
1F
100
AcDbEntity
  8
0
  6
Continuous
 62
     7
370
    25
100
AcDbLine
 10
436.953663944
 20
196.7909889148
 30
0.0
 11
436.953663944
 21
190.7909889148
 31
0.0
  0
LINE
  5
11B
330
1F
100
AcDbEntity
  8
0
  6
Continuous
 62
     7
370
    25
100
AcDbLine
 10
319.953663944
 20
180.7909889148
 30
0.0
 11
413.953663944
 21
180.7909889148
 31
0.0
  0
CIRCLE
  5
11C
330
1F
100
AcDbEntity
  8
0
  6
Continuous
 62
     7
370
    25
100
AcDbCircle
 10
425.953663944
 20
287.7909889148
 30
0.0
 40
1.0
  0
CIRCLE
  5
11D
330
1F
100
AcDbEntity
  8
0
  6
Continuous
 62
     7
370
    25
100
AcDbCircle
 10
366.953663944
 20
190.7909889148
 30
0.0
 40
1.0
  0
CIRCLE
  5
11E
330
1F
100
AcDbEntity
  8
0
  6
Continuous
 62
     7
370
    25
100
AcDbCircle
 10
366.953663944
 20
368.7909889148
 30
0.0
 40
1.0
  0
CIRCLE
  5
11F
330
1F
100
AcDbEntity
  8
0
  6
Continuous
 62
     7
370
    25
100
AcDbCircle
 10
307.953663944
 20
287.7909889148
 30
0.0
 40
1.0
  0
LINE
  5
120
330
1F
100
AcDbEntity
  8
0
  6
Continuous
 62
     7
370
    25
100
AcDbLine
 10
3.12168529
 20
-1.5
 30
0.0
 11
3.12168529
 21
1.5
 31
0.0
  0
LINE
  5
121
330
1F
100
AcDbEntity
  8
0
  6
Continuous
 62
     7
370
    25
100
AcDbLine
 10
3.12168529
 20
1.5
 30
0.0
 11
11.4575857355
 21
1.5
 31
0.0
  0
LINE
  5
122
330
1F
100
AcDbEntity
  8
0
  6
Continuous
 62
     7
370
    25
100
AcDbLine
 10
11.4575857355
 20
1.5
 30
0.0
 11
11.4575857355
 21
-1.5
 31
0.0
  0
LINE
  5
123
330
1F
100
AcDbEntity
  8
0
  6
Continuous
 62
     7
370
    25
100
AcDbLine
 10
11.4575857355
 20
-1.5
 30
0.0
 11
3.12168529
 21
-1.5
 31
0.0
  0
LINE
  5
124
330
1F
100
AcDbEntity
  8
0
  6
Continuous
 62
     7
370
    25
100
AcDbLine
 10
-11.5175857355
 20
-1.5
 30
0.0
 11
-11.5175857355
 21
1.5
 31
0.0
  0
LINE
  5
125
330
1F
100
AcDbEntity
  8
0
  6
Continuous
 62
     7
370
    25
100
AcDbLine
 10
-11.5175857355
 20
1.5
 30
0.0
 11
-3.18168529
 21
1.5
 31
0.0
  0
LINE
  5
126
330
1F
100
AcDbEntity
  8
0
  6
Continuous
 62
     7
370
    25
100
AcDbLine
 10
-3.18168529
 20
1.5
 30
0.0
 11
-3.18168529
 21
-1.5
 31
0.0
  0
LINE
  5
127
330
1F
100
AcDbEntity
  8
0
  6
Continuous
 62
     7
370
    25
100
AcDbLine
 10
-3.18168529
 20
-1.5
 30
0.0
 11
-11.5175857355
 21
-1.5
 31
0.0
  0
LINE
  5
128
330
1F
100
AcDbEntity
  8
0
  6
Continuous
 62
     7
370
    25
100
AcDbLine
 10
-3.18168529
 20
1.5
 30
0.0
 11
3.12168529
 21
1.5
 31
0.0
  0
LINE
  5
129
330
1F
100
AcDbEntity
  8
0
  6
Continuous
 62
     7
370
    25
100
AcDbLine
 10
-3.18168529
 20
-1.5
 30
0.0
 11
3.12168529
 21
-1.5
 31
0.0
  0
LINE
  5
12A
330
1F
100
AcDbEntity
  8
0
  6
Continuous
 62
     7
370
    25
100
AcDbLine
 10
42.9165837046
 20
-1.5
 30
0.0
 11
42.9165837046
 21
1.5
 31
0.0
  0
LINE
  5
12B
330
1F
100
AcDbEntity
  8
0
  6
Continuous
 62
     7
370
    25
100
AcDbLine
 10
11.4575857355
 20
1.5
 30
0.0
 11
42.9165837046
 21
1.5
 31
0.0
  0
LINE
  5
12C
330
1F
100
AcDbEntity
  8
0
  6
Continuous
 62
     7
370
    25
100
AcDbLine
 10
11.4575857355
 20
-1.5
 30
0.0
 11
42.9165837046
 21
-1.5
 31
0.0
  0
LINE
  5
12D
330
1F
100
AcDbEntity
  8
0
  6
Continuous
 62
     7
370
    25
100
AcDbLine
 10
-42.9765837046
 20
-1.5
 30
0.0
 11
-42.9765837046
 21
1.5
 31
0.0
  0
LINE
  5
12E
330
1F
100
AcDbEntity
  8
0
  6
Continuous
 62
     7
370
    25
100
AcDbLine
 10
-11.5175857355
 20
1.5
 30
0.0
 11
-42.9765837046
 21
1.5
 31
0.0
  0
LINE
  5
12F
330
1F
100
AcDbEntity
  8
0
  6
Continuous
 62
     7
370
    25
100
AcDbLine
 10
-11.5175857355
 20
-1.5
 30
0.0
 11
-42.9765837046
 21
-1.5
 31
0.0
  0
LINE
  5
130
330
1F
100
AcDbEntity
  8
0
  6
Continuous
 62
     7
370
    25
100
AcDbLine
 10
-46.03
 20
-1.5
 30
0.0
 11
-46.03
 21
1.5
 31
0.0
  0
LINE
  5
131
330
1F
100
AcDbEntity
  8
0
  6
Continuous
 62
     7
370
    25
100
AcDbLine
 10
-46.03
 20
1.5
 30
0.0
 11
-42.9765837046
 21
1.5
 31
0.0
  0
LINE
  5
132
330
1F
100
AcDbEntity
  8
0
  6
Continuous
 62
     7
370
    25
100
AcDbLine
 10
-46.03
 20
-1.5
 30
0.0
 11
-42.9765837046
 21
-1.5
 31
0.0
  0
LINE
  5
133
330
1F
100
AcDbEntity
  8
0
  6
Continuous
 62
     7
370
    25
100
AcDbLine
 10
45.97
 20
-1.5
 30
0.0
 11
45.97
 21
1.5
 31
0.0
  0
LINE
  5
134
330
1F
100
AcDbEntity
  8
0
  6
Continuous
 62
     7
370
    25
100
AcDbLine
 10
45.97
 20
1.5
 30
0.0
 11
42.9165837046
 21
1.5
 31
0.0
  0
LINE
  5
135
330
1F
100
AcDbEntity
  8
0
  6
Continuous
 62
     7
370
    25
100
AcDbLine
 10
45.97
 20
-1.5
 30
0.0
 11
42.9165837046
 21
-1.5
 31
0.0
  0
LINE
  5
136
330
1F
100
AcDbEntity
  8
0
  6
Continuous
 62
     7
370
    25
100
AcDbLine
 10
-50.7360992854
 20
-1.5
 30
0.0
 11
-50.7360992854
 21
1.5
 31
0.0
  0
LINE
  5
137
330
1F
100
AcDbEntity
  8
0
  6
Continuous
 62
     7
370
    25
100
AcDbLine
 10
-46.03
 20
1.5
 30
0.0
 11
-50.7360992854
 21
1.5
 31
0.0
  0
LINE
  5
138
330
1F
100
AcDbEntity
  8
0
  6
Continuous
 62
     7
370
    25
100
AcDbLine
 10
-46.03
 20
-1.5
 30
0.0
 11
-50.7360992854
 21
-1.5
 31
0.0
  0
LINE
  5
139
330
1F
100
AcDbEntity
  8
0
  6
Continuous
 62
     7
370
    25
100
AcDbLine
 10
50.6760992854
 20
-1.5
 30
0.0
 11
50.6760992854
 21
1.5
 31
0.0
  0
LINE
  5
13A
330
1F
100
AcDbEntity
  8
0
  6
Continuous
 62
     7
370
    25
100
AcDbLine
 10
45.97
 20
1.5
 30
0.0
 11
50.6760992854
 21
1.5
 31
0.0
  0
LINE
  5
13B
330
1F
100
AcDbEntity
  8
0
  6
Continuous
 62
     7
370
    25
100
AcDbLine
 10
45.97
 20
-1.5
 30
0.0
 11
50.6760992854
 21
-1.5
 31
0.0
  0
LINE
  5
13C
330
1F
100
AcDbEntity
  8
0
  6
Continuous
 62
     7
370
    25
100
AcDbLine
 10
65.6000506635
 20
-1.5
 30
0.0
 11
65.6000506635
 21
1.5
 31
0.0
  0
LINE
  5
13D
330
1F
100
AcDbEntity
  8
0
  6
Continuous
 62
     7
370
    25
100
AcDbLine
 10
50.6760992854
 20
1.5
 30
0.0
 11
65.6000506635
 21
1.5
 31
0.0
  0
LINE
  5
13E
330
1F
100
AcDbEntity
  8
0
  6
Continuous
 62
     7
370
    25
100
AcDbLine
 10
50.6760992854
 20
-1.5
 30
0.0
 11
65.6000506635
 21
-1.5
 31
0.0
  0
LINE
  5
13F
330
1F
100
AcDbEntity
  8
0
  6
Continuous
 62
     7
370
    25
100
AcDbLine
 10
-65.6600506635
 20
1.5
 30
0.0
 11
-65.6600506635
 21
-1.5
 31
0.0
  0
LINE
  5
140
330
1F
100
AcDbEntity
  8
0
  6
Continuous
 62
     7
370
    25
100
AcDbLine
 10
-50.7360992854
 20
1.5
 30
0.0
 11
-65.6600506635
 21
1.5
 31
0.0
  0
LINE
  5
141
330
1F
100
AcDbEntity
  8
0
  6
Continuous
 62
     7
370
    25
100
AcDbLine
 10
-50.7360992854
 20
-1.5
 30
0.0
 11
-65.6600506635
 21
-1.5
 31
0.0
  0
LINE
  5
142
330
1F
100
AcDbEntity
  8
0
  6
Continuous
 62
     7
370
    25
100
AcDbLine
 10
69.97
 20
1.5
 30
0.0
 11
69.97
 21
-1.5
 31
0.0
  0
LINE
  5
143
330
1F
100
AcDbEntity
  8
0
  6
Continuous
 62
     7
370
    25
100
AcDbLine
 10
65.6000506635
 20
1.5
 30
0.0
 11
69.97
 21
1.5
 31
0.0
  0
LINE
  5
144
330
1F
100
AcDbEntity
  8
0
  6
Continuous
 62
     7
370
    25
100
AcDbLine
 10
69.97
 20
-1.5
 30
0.0
 11
65.6000506635
 21
-1.5
 31
0.0
  0
LINE
  5
145
330
1F
100
AcDbEntity
  8
0
  6
Continuous
 62
     7
370
    25
100
AcDbLine
 10
-70.03
 20
-1.5
 30
0.0
 11
-70.03
 21
1.5
 31
0.0
  0
LINE
  5
146
330
1F
100
AcDbEntity
  8
0
  6
Continuous
 62
     7
370
    25
100
AcDbLine
 10
-70.03
 20
1.5
 30
0.0
 11
-65.6600506635
 21
1.5
 31
0.0
  0
LINE
  5
147
330
1F
100
AcDbEntity
  8
0
  6
Continuous
 62
     7
370
    25
100
AcDbLine
 10
-65.6600506635
 20
-1.5
 30
0.0
 11
-70.03
 21
-1.5
 31
0.0
  0
ENDSEC
  0
SECTION
  2
OBJECTS
  0
DICTIONARY
  5
C
330
0
100
AcDbDictionary
281
     1
  3
ACAD_GROUP
350
D
  3
ACAD_LAYOUT
350
1A
  3
ACAD_MLINESTYLE
350
17
  3
ACAD_PLOTSETTINGS
350
19
  3
ACAD_PLOTSTYLENAME
350
E
  3
ACAD_SCALELIST
350
47
  3
DWGPROPS
350
148
  0
DICTIONARY
  5
D
102
{ACAD_REACTORS
330
C
102
}
330
C
100
AcDbDictionary
281
     1
  0
DICTIONARY
  5
1A
102
{ACAD_REACTORS
330
C
102
}
330
C
100
AcDbDictionary
281
     1
  3
Layout1
350
1E
  3
Layout2
350
26
  3
Model
350
22
  0
DICTIONARY
  5
17
102
{ACAD_REACTORS
330
C
102
}
330
C
100
AcDbDictionary
281
     1
  3
Standard
350
18
  0
DICTIONARY
  5
19
102
{ACAD_REACTORS
330
C
102
}
330
C
100
AcDbDictionary
281
     1
  0
ACDBDICTIONARYWDFLT
  5
E
102
{ACAD_REACTORS
330
C
102
}
330
C
100
AcDbDictionary
281
     1
  3
Normal
350
F
100
AcDbDictionaryWithDefault
340
F
  0
DICTIONARY
  5
47
102
{ACAD_REACTORS
330
C
102
}
330
C
100
AcDbDictionary
281
     1
  3
A0
350
48
  3
A1
350
49
  3
A2
350
4A
  3
A3
350
4B
  3
A4
350
4C
  3
A5
350
4D
  3
A6
350
4E
  3
A7
350
4F
  3
A8
350
50
  3
A9
350
51
  3
B0
350
52
  3
B1
350
53
  3
B2
350
54
  3
B3
350
55
  3
B4
350
56
  3
B5
350
57
  3
B6
350
58
  0
XRECORD
  5
148
102
{ACAD_REACTORS
330
C
102
}
330
C
100
AcDbXrecord
280
     1
  1
DWGPROPS COOKIE
  2

  3

  4

  6

  7

  8
NITRO
  9

300
=
301
=
302
=
303
=
304
=
305
=
306
=
307
=
308
=
309
=
 40
0.0
 41
2461211.189087292
 42
2461211.189087755
  1

 90
        0
  0
LAYOUT
  5
1E
102
{ACAD_REACTORS
330
1A
102
}
330
1A
100
AcDbPlotSettings
  1

  2
none_device
  4

  6

 40
0.0
 41
0.0
 42
0.0
 43
0.0
 44
0.0
 45
0.0
 46
0.0
 47
0.0
 48
0.0
 49
0.0
140
0.0
141
0.0
142
1.0
143
1.0
 70
   688
 72
     1
 73
     0
 74
     5
  7

 75
    16
147
1.0
148
0.0
149
0.0
100
AcDbLayout
  1
Layout1
 70
     1
 71
     1
 10
0.0
 20
0.0
 11
420.0
 21
297.0
 12
0.0
 22
0.0
 32
0.0
 14
1.0000000000E+20
 24
1.0000000000E+20
 34
1.0000000000E+20
 15
-1.0000000000E+20
 25
-1.0000000000E+20
 35
-1.0000000000E+20
146
0.0
 13
0.0
 23
0.0
 33
0.0
 16
1.0
 26
0.0
 36
0.0
 17
0.0
 27
1.0
 37
0.0
 76
     0
330
1B
  0
LAYOUT
  5
26
102
{ACAD_REACTORS
330
1A
102
}
330
1A
100
AcDbPlotSettings
  1

  2
none_device
  4

  6

 40
0.0
 41
0.0
 42
0.0
 43
0.0
 44
0.0
 45
0.0
 46
0.0
 47
0.0
 48
0.0
 49
0.0
140
0.0
141
0.0
142
1.0
143
1.0
 70
   688
 72
     1
 73
     0
 74
     5
  7

 75
    16
147
1.0
148
0.0
149
0.0
100
AcDbLayout
  1
Layout2
 70
     1
 71
     2
 10
0.0
 20
0.0
 11
0.0
 21
0.0
 12
0.0
 22
0.0
 32
0.0
 14
0.0
 24
0.0
 34
0.0
 15
0.0
 25
0.0
 35
0.0
146
0.0
 13
0.0
 23
0.0
 33
0.0
 16
1.0
 26
0.0
 36
0.0
 17
0.0
 27
1.0
 37
0.0
 76
     0
330
23
  0
LAYOUT
  5
22
102
{ACAD_REACTORS
330
1A
102
}
330
1A
100
AcDbPlotSettings
  1

  2
none_device
  4
Letter_(8.50_x_11.00_Inches)
  6

 40
6.35
 41
6.35
 42
6.35000508
 43
6.35000508
 44
215.9
 45
279.4
 46
0.0
 47
0.0
 48
0.0
 49
0.0
140
0.0
141
0.0
142
1.0
143
1.0
 70
  1712
 72
     1
 73
     0
 74
     0
  7

 75
     0
147
1.0
148
0.0
149
0.0
100
AcDbLayout
  1
Model
 70
     1
 71
     0
 10
0.0
 20
0.0
 11
594.0
 21
420.0
 12
0.0
 22
0.0
 32
0.0
 14
0.0
 24
0.0
 34
0.0
 15
594.0
 25
420.0
 35
0.0
146
0.0
 13
0.0
 23
0.0
 33
0.0
 16
1.0
 26
0.0
 36
0.0
 17
0.0
 27
1.0
 37
0.0
 76
     0
330
1F
331
29
  0
MLINESTYLE
  5
18
102
{ACAD_REACTORS
330
17
102
}
330
17
100
AcDbMlineStyle
  2
Standard
 70
     0
  3

 62
   256
 51
90.0
 52
90.0
 71
     2
 49
0.5
 62
   256
  6
BYLAYER
 49
-0.5
 62
   256
  6
BYLAYER
  0
ACDBPLACEHOLDER
  5
F
102
{ACAD_REACTORS
330
E
102
}
330
E
  0
SCALE
  5
48
102
{ACAD_REACTORS
330
47
102
}
330
47
100
AcDbScale
 70
     0
300
1:1
140
1.0
141
1.0
290
     1
  0
SCALE
  5
49
102
{ACAD_REACTORS
330
47
102
}
330
47
100
AcDbScale
 70
     0
300
1:2
140
1.0
141
2.0
290
     0
  0
SCALE
  5
4A
102
{ACAD_REACTORS
330
47
102
}
330
47
100
AcDbScale
 70
     0
300
1:4
140
1.0
141
4.0
290
     0
  0
SCALE
  5
4B
102
{ACAD_REACTORS
330
47
102
}
330
47
100
AcDbScale
 70
     0
300
1:5
140
1.0
141
5.0
290
     0
  0
SCALE
  5
4C
102
{ACAD_REACTORS
330
47
102
}
330
47
100
AcDbScale
 70
     0
300
1:8
140
1.0
141
8.0
290
     0
  0
SCALE
  5
4D
102
{ACAD_REACTORS
330
47
102
}
330
47
100
AcDbScale
 70
     0
300
1:10
140
1.0
141
10.0
290
     0
  0
SCALE
  5
4E
102
{ACAD_REACTORS
330
47
102
}
330
47
100
AcDbScale
 70
     0
300
1:16
140
1.0
141
16.0
290
     0
  0
SCALE
  5
4F
102
{ACAD_REACTORS
330
47
102
}
330
47
100
AcDbScale
 70
     0
300
1:20
140
1.0
141
20.0
290
     0
  0
SCALE
  5
50
102
{ACAD_REACTORS
330
47
102
}
330
47
100
AcDbScale
 70
     0
300
1:30
140
1.0
141
30.0
290
     0
  0
SCALE
  5
51
102
{ACAD_REACTORS
330
47
102
}
330
47
100
AcDbScale
 70
     0
300
1:40
140
1.0
141
40.0
290
     0
  0
SCALE
  5
52
102
{ACAD_REACTORS
330
47
102
}
330
47
100
AcDbScale
 70
     0
300
1:50
140
1.0
141
50.0
290
     0
  0
SCALE
  5
53
102
{ACAD_REACTORS
330
47
102
}
330
47
100
AcDbScale
 70
     0
300
1:100
140
1.0
141
100.0
290
     0
  0
SCALE
  5
54
102
{ACAD_REACTORS
330
47
102
}
330
47
100
AcDbScale
 70
     0
300
2:1
140
2.0
141
1.0
290
     0
  0
SCALE
  5
55
102
{ACAD_REACTORS
330
47
102
}
330
47
100
AcDbScale
 70
     0
300
4:1
140
4.0
141
1.0
290
     0
  0
SCALE
  5
56
102
{ACAD_REACTORS
330
47
102
}
330
47
100
AcDbScale
 70
     0
300
8:1
140
8.0
141
1.0
290
     0
  0
SCALE
  5
57
102
{ACAD_REACTORS
330
47
102
}
330
47
100
AcDbScale
 70
     0
300
10:1
140
10.0
141
1.0
290
     0
  0
SCALE
  5
58
102
{ACAD_REACTORS
330
47
102
}
330
47
100
AcDbScale
 70
     0
300
100:1
140
100.0
141
1.0
290
     0
  0
ENDSEC
  0
EOF
